black-display-wide vv(115.7--48.4)-(109.3-100.0)-10.0-0.0-(0.0-0.0).ufo
<glyph name="be-cy.sc" format="1">
  <advance width="1534"/>
  <outline>
    <contour>
      <point x="740" y="-144" type="move" name="mark0"/>
    </contour>
    <contour>
      <point x="652" y="772" type="curve"/>
      <point x="652" y="1234" type="line"/>
      <point x="1033" y="1226" type="line"/>
      <point x="1099" y="995" type="line"/>
      <point x="1327" y="995" type="line"/>
      <point x="1303" y="1292" type="line"/>
      <point x="77" y="1292" type="line"/>
      <point x="77" y="1235" type="line"/>
      <point x="247" y="1221" type="line"/>
      <point x="247" y="72" type="line"/>
      <point x="77" y="58" type="line"/>
      <point x="77" y="0" type="line"/>
      <point x="463" y="0" type="line" smooth="yes"/>
      <point x="553" y="0"/>
      <point x="868" y="-14"/>
      <point x="919" y="-14" type="curve" smooth="yes"/>
      <point x="1243" y="-14"/>
      <point x="1470" y="129"/>
      <point x="1470" y="413" type="curve" smooth="yes"/>
      <point x="1470" y="646"/>
      <point x="1292" y="796"/>
      <point x="913" y="796" type="curve" smooth="yes"/>
      <point x="877" y="796"/>
      <point x="669" y="783"/>
    </contour>
    <contour>
      <point x="652" y="72" type="curve"/>
      <point x="652" y="697" type="line"/>
      <point x="662" y="706"/>
      <point x="764" y="710"/>
      <point x="796" y="710" type="curve" smooth="yes"/>
      <point x="974" y="710"/>
      <point x="1055" y="614"/>
      <point x="1055" y="404" type="curve" smooth="yes"/>
      <point x="1055" y="159"/>
      <point x="999" y="56"/>
      <point x="775" y="56" type="curve" smooth="yes"/>
      <point x="704" y="56"/>
      <point x="674" y="66"/>
    </contour>
  </outline>
</glyph>
<glyph name="che-cy.sc" format="1">
  <advance width="1615"/>
  <outline>
    <contour>
      <point x="784" y="1265" type="move" name="top"/>
    </contour>
    <contour>
      <point x="811" y="648" type="move" name="center"/>
    </contour>
    <contour>
      <point x="1566" y="0" type="move" name="bottomright"/>
    </contour>
    <contour>
      <point x="982" y="596" type="curve"/>
      <point x="982" y="74" type="line"/>
      <point x="756" y="58" type="line"/>
      <point x="756" y="0" type="line"/>
      <point x="1544" y="0" type="line"/>
      <point x="1544" y="59" type="line"/>
      <point x="1387" y="74" type="line"/>
      <point x="1387" y="1221" type="line"/>
      <point x="1544" y="1235" type="line"/>
      <point x="1544" y="1292" type="line"/>
      <point x="825" y="1292" type="line"/>
      <point x="825" y="1235" type="line"/>
      <point x="982" y="1220" type="line"/>
      <point x="982" y="659" type="line"/>
      <point x="942" y="632"/>
      <point x="861" y="603"/>
      <point x="768" y="603" type="curve" smooth="yes"/>
      <point x="588" y="603"/>
      <point x="559" y="658"/>
      <point x="559" y="965" type="curve" smooth="yes"/>
      <point x="559" y="1217" type="line"/>
      <point x="691" y="1235" type="line"/>
      <point x="691" y="1292" type="line"/>
      <point x="37" y="1292" type="line"/>
      <point x="37" y="1235" type="line"/>
      <point x="152" y="1218" type="line"/>
      <point x="152" y="921" type="line" smooth="yes"/>
      <point x="152" y="669"/>
      <point x="278" y="522"/>
      <point x="622" y="522" type="curve" smooth="yes"/>
      <point x="739" y="522"/>
      <point x="884" y="550"/>
    </contour>
  </outline>
</glyph>
<glyph name="cheabkhasian-cy.sc" format="1">
  <advance width="1819"/>
  <outline>
    <contour>
      <point x="1677" y="46" type="curve"/>
      <point x="1679" y="284" type="line"/>
      <point x="1414" y="281" type="line"/>
      <point x="1378" y="124" type="line"/>
      <point x="1336" y="90"/>
      <point x="1299" y="55"/>
      <point x="1135" y="55" type="curve" smooth="yes"/>
      <point x="933" y="55"/>
      <point x="822" y="345"/>
      <point x="804" y="649" type="curve"/>
      <point x="1728" y="647" type="line"/>
      <point x="1740" y="679"/>
      <point x="1749" y="712"/>
      <point x="1749" y="790" type="curve" smooth="yes"/>
      <point x="1739" y="1105"/>
      <point x="1447" y="1306"/>
      <point x="1135" y="1306" type="curve" smooth="yes"/>
      <point x="781" y="1306"/>
      <point x="453" y="1057"/>
      <point x="405" y="705" type="curve"/>
      <point x="272" y="707"/>
      <point x="289" y="764"/>
      <point x="289" y="816" type="curve" smooth="yes"/>
      <point x="289" y="851"/>
      <point x="330" y="910"/>
      <point x="348" y="925" type="curve"/>
      <point x="148" y="945" type="line"/>
      <point x="124" y="933"/>
      <point x="36" y="853"/>
      <point x="36" y="828" type="curve" smooth="yes"/>
      <point x="36" y="700"/>
      <point x="210" y="642"/>
      <point x="401" y="639" type="curve"/>
      <point x="420" y="263"/>
      <point x="714" y="-20"/>
      <point x="1102" y="-20" type="curve" smooth="yes"/>
      <point x="1398" y="-20"/>
      <point x="1562" y="44"/>
    </contour>
    <contour>
      <point x="1353" y="705" type="curve"/>
      <point x="800" y="705" type="line"/>
      <point x="808" y="1101"/>
      <point x="906" y="1239"/>
      <point x="1088" y="1239" type="curve" smooth="yes"/>
      <point x="1324" y="1239"/>
      <point x="1346" y="1026"/>
      <point x="1351" y="816" type="curve" smooth="yes"/>
      <point x="1354" y="776"/>
      <point x="1352" y="741"/>
    </contour>
  </outline>
</glyph>
<glyph name="chedescender-cy.sc" format="1">
  <advance width="1656"/>
  <outline>
    <contour>
      <point x="1597" y="74" type="curve"/>
      <point x="1388" y="74" type="line"/>
      <point x="1388" y="1221" type="line"/>
      <point x="1544" y="1235" type="line"/>
      <point x="1544" y="1292" type="line"/>
      <point x="825" y="1292" type="line"/>
      <point x="825" y="1235" type="line"/>
      <point x="983" y="1220" type="line"/>
      <point x="983" y="659" type="line"/>
      <point x="942" y="632"/>
      <point x="861" y="603"/>
      <point x="769" y="603" type="curve" smooth="yes"/>
      <point x="588" y="603"/>
      <point x="560" y="658"/>
      <point x="560" y="965" type="curve" smooth="yes"/>
      <point x="560" y="1217" type="line"/>
      <point x="692" y="1235" type="line"/>
      <point x="692" y="1292" type="line"/>
      <point x="38" y="1292" type="line"/>
      <point x="38" y="1235" type="line"/>
      <point x="153" y="1218" type="line"/>
      <point x="153" y="921" type="line" smooth="yes"/>
      <point x="153" y="669"/>
      <point x="277" y="522"/>
      <point x="623" y="522" type="curve" smooth="yes"/>
      <point x="738" y="522"/>
      <point x="885" y="550"/>
      <point x="983" y="596" type="curve"/>
      <point x="983" y="74" type="line"/>
      <point x="757" y="58" type="line"/>
      <point x="757" y="0" type="line"/>
      <point x="1263" y="0" type="line"/>
      <point x="1290" y="4"/>
      <point x="1332" y="-270"/>
      <point x="1335" y="-298" type="curve"/>
      <point x="1544" y="-298" type="line"/>
      <point x="1556" y="-132"/>
      <point x="1596" y="-62"/>
    </contour>
  </outline>
</glyph>
<glyph name="chedescenderabkhasian-cy.sc" format="1">
  <advance width="1819"/>
  <outline>
    <contour>
      <point x="1677" y="46" type="curve"/>
      <point x="1679" y="284" type="line"/>
      <point x="1414" y="281" type="line"/>
      <point x="1378" y="124" type="line"/>
      <point x="1336" y="90"/>
      <point x="1299" y="55"/>
      <point x="1135" y="55" type="curve" smooth="yes"/>
      <point x="933" y="55"/>
      <point x="822" y="345"/>
      <point x="804" y="649" type="curve"/>
      <point x="1728" y="647" type="line"/>
      <point x="1740" y="679"/>
      <point x="1749" y="712"/>
      <point x="1749" y="790" type="curve" smooth="yes"/>
      <point x="1739" y="1105"/>
      <point x="1447" y="1306"/>
      <point x="1135" y="1306" type="curve" smooth="yes"/>
      <point x="781" y="1306"/>
      <point x="453" y="1057"/>
      <point x="405" y="705" type="curve"/>
      <point x="272" y="707"/>
      <point x="289" y="764"/>
      <point x="289" y="816" type="curve" smooth="yes"/>
      <point x="289" y="851"/>
      <point x="330" y="910"/>
      <point x="348" y="925" type="curve"/>
      <point x="148" y="945" type="line"/>
      <point x="124" y="933"/>
      <point x="36" y="853"/>
      <point x="36" y="828" type="curve" smooth="yes"/>
      <point x="36" y="700"/>
      <point x="210" y="642"/>
      <point x="401" y="639" type="curve"/>
      <point x="420" y="260"/>
      <point x="689" y="-18"/>
      <point x="1066" y="-20" type="curve"/>
      <point x="1085" y="-53"/>
      <point x="1110" y="-119"/>
      <point x="1110" y="-183" type="curve" smooth="yes"/>
      <point x="1110" y="-288"/>
      <point x="1063" y="-309"/>
      <point x="970" y="-309" type="curve" smooth="yes"/>
      <point x="953" y="-309"/>
      <point x="908" y="-302"/>
      <point x="884" y="-293" type="curve"/>
      <point x="885" y="-373" type="line"/>
      <point x="919" y="-384"/>
      <point x="990" y="-394"/>
      <point x="1031" y="-394" type="curve" smooth="yes"/>
      <point x="1231" y="-394"/>
      <point x="1350" y="-354"/>
      <point x="1359" y="-243" type="curve" smooth="yes"/>
      <point x="1366" y="-156"/>
      <point x="1299" y="-55"/>
      <point x="1238" y="-19" type="curve"/>
      <point x="1449" y="-9"/>
      <point x="1583" y="44"/>
    </contour>
    <contour>
      <point x="1353" y="705" type="curve"/>
      <point x="800" y="705" type="line"/>
      <point x="808" y="1101"/>
      <point x="906" y="1239"/>
      <point x="1088" y="1239" type="curve" smooth="yes"/>
      <point x="1324" y="1239"/>
      <point x="1346" y="1026"/>
      <point x="1351" y="816" type="curve" smooth="yes"/>
      <point x="1354" y="776"/>
      <point x="1352" y="741"/>
    </contour>
  </outline>
</glyph>
<glyph name="chekhakassian-cy.sc" format="1">
  <advance width="1620"/>
  <outline>
    <contour>
      <point x="743" y="-144" type="move" name="mark0"/>
    </contour>
    <contour>
      <point x="1062" y="0" type="curve"/>
      <point x="1545" y="0" type="line"/>
      <point x="1545" y="59" type="line"/>
      <point x="1388" y="74" type="line"/>
      <point x="1388" y="1221" type="line"/>
      <point x="1544" y="1235" type="line"/>
      <point x="1544" y="1292" type="line"/>
      <point x="825" y="1292" type="line"/>
      <point x="825" y="1235" type="line"/>
      <point x="983" y="1220" type="line"/>
      <point x="983" y="659" type="line"/>
      <point x="942" y="632"/>
      <point x="861" y="603"/>
      <point x="769" y="603" type="curve" smooth="yes"/>
      <point x="588" y="603"/>
      <point x="560" y="658"/>
      <point x="560" y="965" type="curve" smooth="yes"/>
      <point x="560" y="1217" type="line"/>
      <point x="692" y="1235" type="line"/>
      <point x="692" y="1292" type="line"/>
      <point x="38" y="1292" type="line"/>
      <point x="38" y="1235" type="line"/>
      <point x="153" y="1218" type="line"/>
      <point x="153" y="921" type="line" smooth="yes"/>
      <point x="153" y="669"/>
      <point x="277" y="522"/>
      <point x="623" y="522" type="curve" smooth="yes"/>
      <point x="738" y="522"/>
      <point x="885" y="550"/>
      <point x="983" y="596" type="curve"/>
      <point x="983" y="73" type="line"/>
      <point x="752" y="73" type="line"/>
      <point x="733" y="104"/>
      <point x="721" y="-317"/>
      <point x="721" y="-298" type="curve"/>
      <point x="939" y="-298" type="line"/>
      <point x="950" y="-260"/>
      <point x="1026" y="15"/>
    </contour>
  </outline>
</glyph>
<glyph name="cheverticalstroke-cy.sc" format="1">
  <advance width="1711"/>
  <outline>
    <contour>
      <point x="834" y="-144" type="move" name="mark0"/>
    </contour>
    <contour>
      <point x="1075" y="590" type="curve"/>
      <point x="1075" y="70" type="line"/>
      <point x="834" y="58" type="line"/>
      <point x="834" y="0" type="line"/>
      <point x="1640" y="0" type="line"/>
      <point x="1640" y="59" type="line"/>
      <point x="1481" y="74" type="line"/>
      <point x="1481" y="1221" type="line"/>
      <point x="1640" y="1235" type="line"/>
      <point x="1640" y="1292" type="line"/>
      <point x="899" y="1292" type="line"/>
      <point x="899" y="1235" type="line"/>
      <point x="1075" y="1219" type="line"/>
      <point x="1075" y="658" type="line"/>
      <point x="1048" y="634"/>
      <point x="981" y="609"/>
      <point x="896" y="602" type="curve"/>
      <point x="896" y="872" type="line"/>
      <point x="734" y="872" type="line"/>
      <point x="734" y="603" type="line"/>
      <point x="568" y="606"/>
      <point x="560" y="661"/>
      <point x="560" y="965" type="curve" smooth="yes"/>
      <point x="560" y="1217" type="line"/>
      <point x="722" y="1236" type="line"/>
      <point x="722" y="1292" type="line"/>
      <point x="42" y="1292" type="line"/>
      <point x="42" y="1236" type="line"/>
      <point x="155" y="1215" type="line"/>
      <point x="155" y="921" type="line" smooth="yes"/>
      <point x="155" y="658"/>
      <point x="303" y="522"/>
      <point x="664" y="522" type="curve" smooth="yes"/>
      <point x="686" y="522"/>
      <point x="709" y="522"/>
      <point x="734" y="524" type="curve"/>
      <point x="734" y="319" type="line"/>
      <point x="896" y="319" type="line"/>
      <point x="896" y="523" type="line"/>
      <point x="964" y="535"/>
      <point x="1029" y="553"/>
    </contour>
  </outline>
</glyph>
<glyph name="de-cy.sc" format="1">
  <advance width="1682"/>
  <outline>
    <contour>
      <point x="1596" y="74" type="curve"/>
      <point x="1390" y="74" type="line"/>
      <point x="1390" y="1221" type="line"/>
      <point x="1593" y="1235" type="line"/>
      <point x="1593" y="1292" type="line"/>
      <point x="238" y="1292" type="line"/>
      <point x="238" y="1235" type="line"/>
      <point x="457" y="1221" type="line"/>
      <point x="457" y="1078" type="line" smooth="yes"/>
      <point x="457" y="432"/>
      <point x="298" y="126"/>
      <point x="214" y="74" type="curve"/>
      <point x="64" y="74" type="line"/>
      <point x="52" y="112"/>
      <point x="52" y="-314"/>
      <point x="48" y="-296" type="curve"/>
      <point x="267" y="-296" type="line"/>
      <point x="279" y="-273"/>
      <point x="343" y="9"/>
      <point x="383" y="0" type="curve"/>
      <point x="1260" y="0" type="line"/>
      <point x="1288" y="-4"/>
      <point x="1348" y="-281"/>
      <point x="1351" y="-298" type="curve"/>
      <point x="1561" y="-298" type="line"/>
      <point x="1571" y="-301"/>
      <point x="1596" y="122"/>
    </contour>
    <contour>
      <point x="641" y="1068" type="curve"/>
      <point x="641" y="1217" type="line"/>
      <point x="987" y="1217" type="line"/>
      <point x="989" y="74" type="line"/>
      <point x="462" y="74" type="line"/>
      <point x="529" y="137"/>
      <point x="641" y="501"/>
    </contour>
  </outline>
</glyph>
<glyph name="dje-cy.sc" format="1">
  <advance width="1932"/>
  <outline>
    <contour>
      <point x="722" y="-144" type="move" name="mark0"/>
    </contour>
    <contour>
      <point x="995" y="668" type="curve"/>
      <point x="995" y="1233" type="line"/>
      <point x="1306" y="1220" type="line"/>
      <point x="1377" y="890" type="line"/>
      <point x="1593" y="890" type="line"/>
      <point x="1560" y="1292" type="line"/>
      <point x="89" y="1292" type="line"/>
      <point x="58" y="890" type="line"/>
      <point x="270" y="890" type="line"/>
      <point x="337" y="1220" type="line"/>
      <point x="588" y="1233" type="line"/>
      <point x="588" y="73" type="line"/>
      <point x="287" y="58" type="line"/>
      <point x="287" y="0" type="line"/>
      <point x="1273" y="0" type="line"/>
      <point x="1273" y="58" type="line"/>
      <point x="995" y="70" type="line"/>
      <point x="995" y="613" type="line"/>
      <point x="1041" y="654"/>
      <point x="1128" y="664"/>
      <point x="1236" y="664" type="curve" smooth="yes"/>
      <point x="1405" y="664"/>
      <point x="1469" y="536"/>
      <point x="1469" y="306" type="curve" smooth="yes"/>
      <point x="1469" y="-61"/>
      <point x="1384" y="-264"/>
      <point x="1220" y="-264" type="curve" smooth="yes"/>
      <point x="1109" y="-264"/>
      <point x="1077" y="-265"/>
      <point x="1054" y="-265" type="curve"/>
      <point x="1071" y="-330" type="line"/>
      <point x="1105" y="-340"/>
      <point x="1175" y="-339"/>
      <point x="1283" y="-339" type="curve" smooth="yes"/>
      <point x="1635" y="-339"/>
      <point x="1884" y="-42"/>
      <point x="1884" y="309" type="curve" smooth="yes"/>
      <point x="1884" y="519"/>
      <point x="1665" y="738"/>
      <point x="1330" y="738" type="curve" smooth="yes"/>
      <point x="1216" y="738"/>
      <point x="1048" y="720"/>
    </contour>
  </outline>
</glyph>
<glyph name="dzeabkhasian-cy.sc" format="1">
  <advance width="1405"/>
  <outline>
    <contour>
      <point x="847" y="723" type="curve"/>
      <point x="1286" y="1242" type="line"/>
      <point x="1286" y="1292" type="line"/>
      <point x="128" y="1292" type="line"/>
      <point x="152" y="1028" type="line"/>
      <point x="390" y="1028" type="line"/>
      <point x="441" y="1200" type="line"/>
      <point x="876" y="1205" type="line"/>
      <point x="768" y="1245"/>
      <point x="622" y="711"/>
      <point x="511" y="734" type="curve"/>
      <point x="564" y="682" type="line"/>
      <point x="596" y="680"/>
      <point x="627" y="680"/>
      <point x="651" y="680" type="curve"/>
      <point x="881" y="667"/>
      <point x="901" y="578"/>
      <point x="901" y="383" type="curve" smooth="yes"/>
      <point x="901" y="232"/>
      <point x="777" y="76"/>
      <point x="618" y="76" type="curve" smooth="yes"/>
      <point x="517" y="76"/>
      <point x="465" y="107"/>
      <point x="457" y="112" type="curve"/>
      <point x="379" y="305" type="line"/>
      <point x="157" y="305" type="line"/>
      <point x="106" y="44" type="line"/>
      <point x="178" y="38"/>
      <point x="416" y="-9"/>
      <point x="633" y="-9" type="curve" smooth="yes"/>
      <point x="1196" y="-9"/>
      <point x="1346" y="137"/>
      <point x="1346" y="395" type="curve" smooth="yes"/>
      <point x="1346" y="632"/>
      <point x="1221" y="730"/>
      <point x="919" y="730" type="curve" smooth="yes"/>
      <point x="898" y="730"/>
      <point x="872" y="728"/>
    </contour>
  </outline>
</glyph>
<glyph name="dzhe-cy.sc" format="1">
  <advance width="1775"/>
  <outline>
    <contour>
      <point x="1065" y="0" type="curve"/>
      <point x="1701" y="0" type="line"/>
      <point x="1701" y="58" type="line"/>
      <point x="1540" y="72" type="line"/>
      <point x="1540" y="1221" type="line"/>
      <point x="1695" y="1235" type="line"/>
      <point x="1695" y="1292" type="line"/>
      <point x="961" y="1292" type="line"/>
      <point x="961" y="1235" type="line"/>
      <point x="1138" y="1221" type="line"/>
      <point x="1138" y="76" type="line"/>
      <point x="639" y="76" type="line"/>
      <point x="639" y="1221" type="line"/>
      <point x="814" y="1235" type="line"/>
      <point x="814" y="1292" type="line"/>
      <point x="80" y="1292" type="line"/>
      <point x="80" y="1235" type="line"/>
      <point x="234" y="1221" type="line"/>
      <point x="234" y="74" type="line"/>
      <point x="76" y="58" type="line"/>
      <point x="76" y="0" type="line"/>
      <point x="708" y="0" type="line"/>
      <point x="724" y="5"/>
      <point x="773" y="-326"/>
      <point x="773" y="-296" type="curve"/>
      <point x="1005" y="-296" type="line"/>
      <point x="1006" y="-189"/>
      <point x="1043" y="-124"/>
    </contour>
  </outline>
</glyph>
<glyph name="ef-cy.sc" format="1">
  <advance width="1930"/>
  <outline>
    <contour>
      <point x="969" y="-144" type="move" name="mark0"/>
    </contour>
    <contour>
      <point x="1160" y="1115" type="curve"/>
      <point x="1160" y="1250" type="line"/>
      <point x="1326" y="1267" type="line"/>
      <point x="1326" y="1327" type="line"/>
      <point x="597" y="1327" type="line"/>
      <point x="597" y="1267" type="line"/>
      <point x="769" y="1250" type="line"/>
      <point x="769" y="1116" type="line"/>
      <point x="227" y="1089"/>
      <point x="46" y="900"/>
      <point x="46" y="665" type="curve" smooth="yes"/>
      <point x="46" y="453"/>
      <point x="154" y="213"/>
      <point x="769" y="189" type="curve"/>
      <point x="769" y="46" type="line"/>
      <point x="598" y="22" type="line"/>
      <point x="598" y="-36" type="line"/>
      <point x="1330" y="-36" type="line"/>
      <point x="1330" y="19" type="line"/>
      <point x="1160" y="45" type="line"/>
      <point x="1160" y="192" type="line"/>
      <point x="1644" y="224"/>
      <point x="1884" y="430"/>
      <point x="1884" y="664" type="curve" smooth="yes"/>
      <point x="1884" y="884"/>
      <point x="1780" y="1096"/>
    </contour>
    <contour>
      <point x="769" y="1065" type="curve"/>
      <point x="769" y="248" type="line"/>
      <point x="514" y="267"/>
      <point x="464" y="486"/>
      <point x="464" y="676" type="curve" smooth="yes"/>
      <point x="464" y="855"/>
      <point x="505" y="1045"/>
    </contour>
    <contour>
      <point x="1160" y="251" type="curve"/>
      <point x="1160" y="1064" type="line"/>
      <point x="1421" y="1046"/>
      <point x="1464" y="842"/>
      <point x="1464" y="662" type="curve" smooth="yes"/>
      <point x="1464" y="458"/>
      <point x="1423" y="273"/>
    </contour>
  </outline>
</glyph>
<glyph name="el-cy.sc" format="1">
  <advance width="1697"/>
  <outline>
    <contour>
      <point x="656" y="-144" type="move" name="mark0"/>
    </contour>
    <contour>
      <point x="660" y="1032" type="curve" smooth="yes"/>
      <point x="660" y="1222" type="line"/>
      <point x="1024" y="1222" type="line"/>
      <point x="1024" y="74" type="line"/>
      <point x="803" y="58" type="line"/>
      <point x="803" y="0" type="line"/>
      <point x="1624" y="0" type="line"/>
      <point x="1624" y="58" type="line"/>
      <point x="1424" y="72" type="line"/>
      <point x="1424" y="1221" type="line"/>
      <point x="1616" y="1235" type="line"/>
      <point x="1616" y="1292" type="line"/>
      <point x="213" y="1292" type="line"/>
      <point x="213" y="1235" type="line"/>
      <point x="480" y="1221" type="line"/>
      <point x="480" y="1030" type="line" smooth="yes"/>
      <point x="480" y="585"/>
      <point x="430" y="303"/>
      <point x="361" y="172" type="curve"/>
      <point x="325" y="134"/>
      <point x="291" y="111"/>
      <point x="231" y="111" type="curve" smooth="yes"/>
      <point x="160" y="111"/>
      <point x="120" y="116"/>
      <point x="66" y="120" type="curve"/>
      <point x="92" y="0" type="line"/>
      <point x="137" y="-2"/>
      <point x="196" y="-9"/>
      <point x="268" y="-9" type="curve" smooth="yes"/>
      <point x="380" y="-9"/>
      <point x="464" y="25"/>
      <point x="521" y="108" type="curve" smooth="yes"/>
      <point x="621" y="262"/>
      <point x="660" y="572"/>
    </contour>
  </outline>
</glyph>
<glyph name="elhook-cy.sc" format="1">
  <advance width="1649"/>
  <outline>
    <contour>
      <point x="1424" y="478" type="curve" smooth="yes"/>
      <point x="1424" y="1221" type="line"/>
      <point x="1616" y="1235" type="line"/>
      <point x="1616" y="1292" type="line"/>
      <point x="213" y="1292" type="line"/>
      <point x="213" y="1235" type="line"/>
      <point x="480" y="1221" type="line"/>
      <point x="480" y="1030" type="line" smooth="yes"/>
      <point x="480" y="585"/>
      <point x="430" y="303"/>
      <point x="361" y="172" type="curve"/>
      <point x="325" y="134"/>
      <point x="291" y="111"/>
      <point x="231" y="111" type="curve" smooth="yes"/>
      <point x="160" y="111"/>
      <point x="120" y="116"/>
      <point x="66" y="120" type="curve"/>
      <point x="92" y="0" type="line"/>
      <point x="137" y="-2"/>
      <point x="196" y="-9"/>
      <point x="268" y="-9" type="curve" smooth="yes"/>
      <point x="380" y="-9"/>
      <point x="464" y="25"/>
      <point x="521" y="108" type="curve" smooth="yes"/>
      <point x="621" y="262"/>
      <point x="660" y="572"/>
      <point x="660" y="1032" type="curve" smooth="yes"/>
      <point x="660" y="1222" type="line"/>
      <point x="1022" y="1222" type="line"/>
      <point x="1022" y="484" type="line" smooth="yes"/>
      <point x="1021" y="196"/>
      <point x="1003" y="100"/>
      <point x="978" y="-16" type="curve" smooth="yes"/>
      <point x="921" y="-131"/>
      <point x="816" y="-211"/>
      <point x="726" y="-239" type="curve"/>
      <point x="815" y="-286" type="line"/>
      <point x="1146" y="-265"/>
      <point x="1329" y="-174"/>
      <point x="1392" y="40" type="curve"/>
      <point x="1419" y="137"/>
      <point x="1424" y="286"/>
    </contour>
  </outline>
</glyph>
<glyph name="eltail-cy.sc" format="1">
  <advance width="1709"/>
  <outline>
    <contour>
      <point x="680" y="-144" type="move" name="mark0"/>
    </contour>
    <contour>
      <point x="1640" y="0" type="curve"/>
      <point x="1640" y="73" type="line"/>
      <point x="1424" y="73" type="line"/>
      <point x="1424" y="1221" type="line"/>
      <point x="1616" y="1235" type="line"/>
      <point x="1616" y="1292" type="line"/>
      <point x="213" y="1292" type="line"/>
      <point x="213" y="1235" type="line"/>
      <point x="480" y="1221" type="line"/>
      <point x="480" y="1030" type="line" smooth="yes"/>
      <point x="480" y="588"/>
      <point x="430" y="302"/>
      <point x="361" y="172" type="curve"/>
      <point x="328" y="130"/>
      <point x="295" y="112"/>
      <point x="231" y="112" type="curve" smooth="yes"/>
      <point x="156" y="112"/>
      <point x="119" y="116"/>
      <point x="66" y="121" type="curve"/>
      <point x="92" y="0" type="line"/>
      <point x="137" y="-2"/>
      <point x="196" y="-9"/>
      <point x="268" y="-9" type="curve" smooth="yes"/>
      <point x="378" y="-9"/>
      <point x="456" y="25"/>
      <point x="513" y="105" type="curve" smooth="yes"/>
      <point x="618" y="271"/>
      <point x="660" y="581"/>
      <point x="660" y="1032" type="curve" smooth="yes"/>
      <point x="660" y="1222" type="line"/>
      <point x="1024" y="1222" type="line"/>
      <point x="1026" y="74" type="line"/>
      <point x="803" y="58" type="line"/>
      <point x="803" y="0" type="line"/>
      <point x="1334" y="0" type="line"/>
      <point x="1313" y="0"/>
      <point x="1246" y="-325"/>
      <point x="1193" y="-296" type="curve"/>
      <point x="1403" y="-296" type="line"/>
      <point x="1441" y="-306"/>
      <point x="1574" y="32"/>
    </contour>
  </outline>
</glyph>
<glyph name="emtail-cy.sc" format="1">
  <advance width="2229"/>
  <outline>
    <contour>
      <point x="943" y="-144" type="move" name="mark0"/>
    </contour>
    <contour>
      <point x="2241" y="0" type="curve"/>
      <point x="2241" y="76" type="line"/>
      <point x="2067" y="76" type="line"/>
      <point x="1880" y="1221" type="line"/>
      <point x="2101" y="1235" type="line"/>
      <point x="2101" y="1292" type="line"/>
      <point x="1348" y="1292" type="line"/>
      <point x="1161" y="378" type="line"/>
      <point x="1127" y="133" type="line"/>
      <point x="1087" y="378" type="line"/>
      <point x="874" y="1292" type="line"/>
      <point x="140" y="1292" type="line"/>
      <point x="140" y="1235" type="line"/>
      <point x="335" y="1221" type="line"/>
      <point x="171" y="74" type="line"/>
      <point x="-2" y="58" type="line"/>
      <point x="-2" y="0" type="line"/>
      <point x="620" y="0" type="line"/>
      <point x="620" y="58" type="line"/>
      <point x="409" y="74" type="line"/>
      <point x="490" y="884" type="line"/>
      <point x="517" y="1248" type="line"/>
      <point x="593" y="897" type="line"/>
      <point x="884" y="-14" type="line"/>
      <point x="1204" y="-14" type="line"/>
      <point x="1448" y="1030" type="line"/>
      <point x="1503" y="1251" type="line"/>
      <point x="1542" y="884" type="line"/>
      <point x="1639" y="74" type="line"/>
      <point x="1470" y="58" type="line"/>
      <point x="1470" y="0" type="line"/>
      <point x="1935" y="0" type="line"/>
      <point x="1915" y="12"/>
      <point x="1844" y="-317"/>
      <point x="1812" y="-296" type="curve"/>
      <point x="2020" y="-296" type="line"/>
      <point x="2053" y="-298"/>
      <point x="2166" y="34"/>
    </contour>
  </outline>
</glyph>
<glyph name="endescender-cy.sc" format="1">
  <advance width="1802"/>
  <outline>
    <contour>
      <point x="814" y="-144" type="move" name="mark0"/>
    </contour>
    <contour>
      <point x="1778" y="74" type="curve"/>
      <point x="1562" y="74" type="line"/>
      <point x="1562" y="1220" type="line"/>
      <point x="1713" y="1235" type="line"/>
      <point x="1713" y="1292" type="line"/>
      <point x="1002" y="1292" type="line"/>
      <point x="1002" y="1235" type="line"/>
      <point x="1158" y="1221" type="line"/>
      <point x="1158" y="702" type="line"/>
      <point x="640" y="702" type="line"/>
      <point x="640" y="1220" type="line"/>
      <point x="807" y="1235" type="line"/>
      <point x="807" y="1292" type="line"/>
      <point x="89" y="1292" type="line"/>
      <point x="89" y="1235" type="line"/>
      <point x="233" y="1220" type="line"/>
      <point x="233" y="72" type="line"/>
      <point x="87" y="58" type="line"/>
      <point x="87" y="0" type="line"/>
      <point x="808" y="0" type="line"/>
      <point x="808" y="58" type="line"/>
      <point x="640" y="72" type="line"/>
      <point x="640" y="630" type="line"/>
      <point x="1158" y="630" type="line"/>
      <point x="1158" y="74" type="line"/>
      <point x="1001" y="58" type="line"/>
      <point x="1001" y="0" type="line"/>
      <point x="1442" y="0" type="line"/>
      <point x="1472" y="-4"/>
      <point x="1512" y="-276"/>
      <point x="1515" y="-298" type="curve"/>
      <point x="1726" y="-298" type="line"/>
      <point x="1735" y="-298"/>
      <point x="1778" y="118"/>
    </contour>
  </outline>
</glyph>
<glyph name="enghe-cy.sc" format="1">
  <advance width="2143"/>
  <outline>
    <contour>
      <point x="80" y="1292" type="line"/>
      <point x="80" y="1235" type="line"/>
      <point x="233" y="1220" type="line"/>
      <point x="233" y="72" type="line"/>
      <point x="77" y="58" type="line"/>
      <point x="77" y="0" type="line"/>
      <point x="809" y="0" type="line"/>
      <point x="809" y="58" type="line"/>
      <point x="640" y="74" type="line"/>
      <point x="640" y="630" type="line"/>
      <point x="1155" y="630" type="line"/>
      <point x="1155" y="74" type="line"/>
      <point x="1001" y="58" type="line"/>
      <point x="1001" y="0" type="line"/>
      <point x="1740" y="0" type="line"/>
      <point x="1740" y="58" type="line"/>
      <point x="1560" y="74" type="line"/>
      <point x="1560" y="1235" type="line"/>
      <point x="1780" y="1215" type="line"/>
      <point x="1869" y="915" type="line"/>
      <point x="2095" y="915" type="line"/>
      <point x="2058" y="1292" type="line"/>
      <point x="999" y="1292" type="line"/>
      <point x="999" y="1235" type="line"/>
      <point x="1155" y="1221" type="line"/>
      <point x="1155" y="702" type="line"/>
      <point x="640" y="702" type="line"/>
      <point x="640" y="1221" type="line"/>
      <point x="809" y="1235" type="line"/>
      <point x="809" y="1292" type="line"/>
    </contour>
  </outline>
</glyph>
<glyph name="enhook-cy.sc" format="1">
  <advance width="1761"/>
  <outline>
    <contour>
      <point x="859" y="-144" type="move" name="mark0"/>
    </contour>
    <contour>
      <point x="1562" y="435" type="curve" smooth="yes"/>
      <point x="1562" y="1221" type="line"/>
      <point x="1713" y="1235" type="line"/>
      <point x="1713" y="1292" type="line"/>
      <point x="1002" y="1292" type="line"/>
      <point x="1002" y="1235" type="line"/>
      <point x="1158" y="1221" type="line"/>
      <point x="1158" y="702" type="line"/>
      <point x="640" y="702" type="line"/>
      <point x="640" y="1220" type="line"/>
      <point x="807" y="1235" type="line"/>
      <point x="807" y="1292" type="line"/>
      <point x="89" y="1292" type="line"/>
      <point x="89" y="1235" type="line"/>
      <point x="233" y="1220" type="line"/>
      <point x="233" y="72" type="line"/>
      <point x="87" y="58" type="line"/>
      <point x="87" y="0" type="line"/>
      <point x="808" y="0" type="line"/>
      <point x="808" y="58" type="line"/>
      <point x="640" y="72" type="line"/>
      <point x="640" y="630" type="line"/>
      <point x="1157" y="630" type="line"/>
      <point x="1157" y="441" type="line" smooth="yes"/>
      <point x="1157" y="123"/>
      <point x="1143" y="16"/>
      <point x="1120" y="-79" type="curve"/>
      <point x="1062" y="-150"/>
      <point x="959" y="-209"/>
      <point x="852" y="-228" type="curve"/>
      <point x="940" y="-280" type="line"/>
      <point x="1292" y="-270"/>
      <point x="1464" y="-201"/>
      <point x="1526" y="-34" type="curve"/>
      <point x="1554" y="97"/>
      <point x="1562" y="223"/>
    </contour>
  </outline>
</glyph>
<glyph name="enlefthook-cy.sc" format="1">
  <advance width="1785"/>
  <outline>
    <contour>
      <point x="665" y="478" type="curve" smooth="yes"/>
      <point x="665" y="630" type="line"/>
      <point x="1166" y="630" type="line"/>
      <point x="1166" y="75" type="line"/>
      <point x="1010" y="58" type="line"/>
      <point x="1010" y="0" type="line"/>
      <point x="1715" y="0" type="line"/>
      <point x="1715" y="58" type="line"/>
      <point x="1568" y="73" type="line"/>
      <point x="1568" y="1220" type="line"/>
      <point x="1714" y="1235" type="line"/>
      <point x="1714" y="1292" type="line"/>
      <point x="1012" y="1292" type="line"/>
      <point x="1012" y="1235" type="line"/>
      <point x="1166" y="1221" type="line"/>
      <point x="1166" y="701" type="line"/>
      <point x="665" y="701" type="line"/>
      <point x="665" y="1220" type="line"/>
      <point x="834" y="1235" type="line"/>
      <point x="834" y="1292" type="line"/>
      <point x="117" y="1292" type="line"/>
      <point x="117" y="1235" type="line"/>
      <point x="262" y="1220" type="line"/>
      <point x="262" y="484" type="line" smooth="yes"/>
      <point x="262" y="226"/>
      <point x="246" y="110"/>
      <point x="221" y="-19" type="curve" smooth="yes"/>
      <point x="163" y="-129"/>
      <point x="58" y="-211"/>
      <point x="-33" y="-239" type="curve"/>
      <point x="57" y="-286" type="line"/>
      <point x="382" y="-262"/>
      <point x="565" y="-166"/>
      <point x="633" y="41" type="curve"/>
      <point x="662" y="155"/>
      <point x="665" y="280"/>
    </contour>
  </outline>
</glyph>
<glyph name="entail-cy.sc" format="1">
  <advance width="1788"/>
  <outline>
    <contour>
      <point x="1759" y="0" type="curve"/>
      <point x="1759" y="71" type="line"/>
      <point x="1562" y="71" type="line"/>
      <point x="1562" y="1220" type="line"/>
      <point x="1716" y="1235" type="line"/>
      <point x="1716" y="1292" type="line"/>
      <point x="1000" y="1292" type="line"/>
      <point x="1000" y="1235" type="line"/>
      <point x="1156" y="1221" type="line"/>
      <point x="1156" y="702" type="line"/>
      <point x="641" y="702" type="line"/>
      <point x="641" y="1221" type="line"/>
      <point x="810" y="1235" type="line"/>
      <point x="810" y="1292" type="line"/>
      <point x="82" y="1292" type="line"/>
      <point x="82" y="1235" type="line"/>
      <point x="233" y="1221" type="line"/>
      <point x="233" y="72" type="line"/>
      <point x="79" y="57" type="line"/>
      <point x="79" y="0" type="line"/>
      <point x="810" y="0" type="line"/>
      <point x="810" y="57" type="line"/>
      <point x="641" y="74" type="line"/>
      <point x="641" y="630" type="line"/>
      <point x="1156" y="630" type="line"/>
      <point x="1156" y="74" type="line"/>
      <point x="1001" y="57" type="line"/>
      <point x="1001" y="0" type="line"/>
      <point x="1461" y="0" type="line"/>
      <point x="1427" y="-114"/>
      <point x="1353" y="-198"/>
      <point x="1298" y="-299" type="curve"/>
      <point x="1516" y="-299" type="line"/>
      <point x="1551" y="-310"/>
      <point x="1701" y="19"/>
    </contour>
  </outline>
</glyph>
<glyph name="ereversed-cy.sc" format="1">
  <advance width="1475"/>
  <outline>
    <contour>
      <point x="722" y="1265" type="move" name="top"/>
    </contour>
    <contour>
      <point x="101" y="1240" type="curve"/>
      <point x="117" y="996" type="line"/>
      <point x="349" y="994" type="line"/>
      <point x="425" y="1139" type="line"/>
      <point x="449" y="1181"/>
      <point x="507" y="1236"/>
      <point x="627" y="1236" type="curve" smooth="yes"/>
      <point x="820" y="1236"/>
      <point x="928" y="974"/>
      <point x="957" y="699" type="curve"/>
      <point x="393" y="717" type="line"/>
      <point x="393" y="609" type="line"/>
      <point x="964" y="625" type="line"/>
      <point x="957" y="277"/>
      <point x="827" y="58"/>
      <point x="612" y="58" type="curve" smooth="yes"/>
      <point x="510" y="58"/>
      <point x="476" y="108"/>
      <point x="454" y="140" type="curve"/>
      <point x="381" y="272" type="line"/>
      <point x="116" y="246" type="line"/>
      <point x="114" y="50" type="line"/>
      <point x="231" y="51"/>
      <point x="361" y="-20"/>
      <point x="589" y="-20" type="curve" smooth="yes"/>
      <point x="1106" y="-20"/>
      <point x="1411" y="256"/>
      <point x="1411" y="628" type="curve" smooth="yes"/>
      <point x="1411" y="1029"/>
      <point x="1160" y="1306"/>
      <point x="663" y="1306" type="curve" smooth="yes"/>
      <point x="366" y="1306"/>
      <point x="224" y="1243"/>
    </contour>
  </outline>
</glyph>
<glyph name="ertick-cy.sc" format="1">
  <advance width="1445"/>
  <outline>
    <contour>
      <point x="718" y="-144" type="move" name="mark0"/>
    </contour>
    <contour>
      <point x="447" y="1292" type="curve" smooth="yes"/>
      <point x="85" y="1292" type="line"/>
      <point x="85" y="1235" type="line"/>
      <point x="233" y="1221" type="line"/>
      <point x="233" y="72" type="line"/>
      <point x="79" y="58" type="line"/>
      <point x="79" y="0" type="line"/>
      <point x="913" y="0" type="line"/>
      <point x="913" y="58" type="line"/>
      <point x="641" y="75" type="line"/>
      <point x="641" y="522" type="line"/>
      <point x="663" y="517"/>
      <point x="718" y="513"/>
      <point x="766" y="513" type="curve" smooth="yes"/>
      <point x="877" y="513"/>
      <point x="974" y="522"/>
      <point x="1058" y="537" type="curve"/>
      <point x="1234" y="316" type="line"/>
      <point x="1332" y="356" type="line"/>
      <point x="1180" y="566" type="line"/>
      <point x="1323" y="632"/>
      <point x="1403" y="762"/>
      <point x="1403" y="950" type="curve" smooth="yes"/>
      <point x="1403" y="1169"/>
      <point x="1260" y="1306"/>
      <point x="794" y="1305" type="curve" smooth="yes"/>
      <point x="638" y="1304"/>
      <point x="530" y="1292"/>
    </contour>
    <contour>
      <point x="959" y="609" type="curve"/>
      <point x="838" y="783" type="line"/>
      <point x="740" y="744" type="line"/>
      <point x="898" y="591" type="line"/>
      <point x="859" y="587"/>
      <point x="811" y="585"/>
      <point x="755" y="585" type="curve" smooth="yes"/>
      <point x="693" y="585"/>
      <point x="657" y="586"/>
      <point x="640" y="593" type="curve"/>
      <point x="640" y="1225" type="line"/>
      <point x="665" y="1223"/>
      <point x="679" y="1235"/>
      <point x="753" y="1235" type="curve" smooth="yes"/>
      <point x="907" y="1235"/>
      <point x="992" y="1164"/>
      <point x="992" y="950" type="curve" smooth="yes"/>
      <point x="992" y="766"/>
      <point x="981" y="660"/>
    </contour>
  </outline>
</glyph>
<glyph name="esdescender-cy.sc" format="1">
  <advance width="1425"/>
  <outline>
    <contour>
      <point x="1314" y="46" type="curve"/>
      <point x="1348" y="260" type="line"/>
      <point x="1117" y="270" type="line"/>
      <point x="1022" y="117" type="line"/>
      <point x="990" y="77"/>
      <point x="949" y="47"/>
      <point x="837" y="47" type="curve" smooth="yes"/>
      <point x="626" y="47"/>
      <point x="519" y="361"/>
      <point x="519" y="671" type="curve" smooth="yes"/>
      <point x="519" y="1028"/>
      <point x="641" y="1240"/>
      <point x="831" y="1240" type="curve" smooth="yes"/>
      <point x="929" y="1240"/>
      <point x="972" y="1211"/>
      <point x="993" y="1181" type="curve"/>
      <point x="1070" y="1005" type="line"/>
      <point x="1323" y="1005" type="line"/>
      <point x="1352" y="1248" type="line"/>
      <point x="1264" y="1265"/>
      <point x="1060" y="1306"/>
      <point x="848" y="1306" type="curve" smooth="yes"/>
      <point x="395" y="1306"/>
      <point x="62" y="1033"/>
      <point x="62" y="660" type="curve" smooth="yes"/>
      <point x="62" y="292"/>
      <point x="252" y="20"/>
      <point x="643" y="-17" type="curve"/>
      <point x="662" y="-78"/>
      <point x="706" y="-323"/>
      <point x="706" y="-296" type="curve"/>
      <point x="935" y="-296" type="line"/>
      <point x="939" y="55"/>
      <point x="970" y="-146"/>
      <point x="991" y="-17" type="curve"/>
      <point x="1127" y="-9"/>
      <point x="1203" y="44"/>
    </contour>
  </outline>
</glyph>
<glyph name="fita-cy.sc" format="1">
  <advance width="1567"/>
  <outline>
    <contour>
      <point x="776" y="-20" type="curve" smooth="yes"/>
      <point x="1227" y="-12"/>
      <point x="1503" y="245"/>
      <point x="1503" y="654" type="curve" smooth="yes"/>
      <point x="1503" y="1047"/>
      <point x="1313" y="1308"/>
      <point x="794" y="1307" type="curve" smooth="yes"/>
      <point x="347" y="1306"/>
      <point x="67" y="1047"/>
      <point x="67" y="634" type="curve" smooth="yes"/>
      <point x="67" y="248"/>
      <point x="265" y="-28"/>
    </contour>
    <contour>
      <point x="783" y="49" type="curve" smooth="yes"/>
      <point x="623" y="49"/>
      <point x="523" y="269"/>
      <point x="510" y="547" type="curve"/>
      <point x="535" y="588"/>
      <point x="565" y="675"/>
      <point x="609" y="675" type="curve" smooth="yes"/>
      <point x="718" y="675"/>
      <point x="782" y="549"/>
      <point x="924" y="549" type="curve" smooth="yes"/>
      <point x="977" y="549"/>
      <point x="1020" y="624"/>
      <point x="1054" y="698" type="curve"/>
      <point x="1039" y="288"/>
      <point x="944" y="49"/>
    </contour>
    <contour>
      <point x="516" y="619" type="curve"/>
      <point x="532" y="1034"/>
      <point x="627" y="1237"/>
      <point x="788" y="1237" type="curve" smooth="yes"/>
      <point x="942" y="1237"/>
      <point x="1045" y="1027"/>
      <point x="1055" y="770" type="curve"/>
      <point x="1035" y="729"/>
      <point x="1014" y="641"/>
      <point x="968" y="641" type="curve" smooth="yes"/>
      <point x="857" y="641"/>
      <point x="793" y="765"/>
      <point x="651" y="765" type="curve" smooth="yes"/>
      <point x="603" y="765"/>
      <point x="554" y="697"/>
    </contour>
  </outline>
</glyph>
<glyph name="ge-cy.sc" format="1">
  <advance width="1323"/>
  <outline>
    <contour>
      <point x="750" y="1265" type="move" name="top"/>
    </contour>
    <contour>
      <point x="662" y="648" type="move" name="center"/>
    </contour>
    <contour>
      <point x="312" y="0" type="move" name="bottomright"/>
    </contour>
    <contour>
      <point x="73" y="1292" type="line"/>
      <point x="73" y="1238" type="line"/>
      <point x="296" y="1218" type="line"/>
      <point x="296" y="74" type="line"/>
      <point x="70" y="57" type="line"/>
      <point x="70" y="0" type="line"/>
      <point x="1020" y="0" type="line"/>
      <point x="1020" y="57" type="line"/>
      <point x="700" y="74" type="line"/>
      <point x="700" y="1234" type="line"/>
      <point x="999" y="1227" type="line"/>
      <point x="1080" y="884" type="line"/>
      <point x="1308" y="884" type="line"/>
      <point x="1272" y="1292" type="line"/>
    </contour>
  </outline>
</glyph>
<glyph name="gedescender-cy.sc" format="1">
  <advance width="1318"/>
  <outline>
    <contour>
      <point x="715" y="-144" type="move" name="mark0"/>
    </contour>
    <contour>
      <point x="1078" y="74" type="curve"/>
      <point x="700" y="74" type="line"/>
      <point x="700" y="1234" type="line"/>
      <point x="999" y="1227" type="line"/>
      <point x="1088" y="884" type="line"/>
      <point x="1308" y="884" type="line"/>
      <point x="1272" y="1292" type="line"/>
      <point x="73" y="1292" type="line"/>
      <point x="73" y="1238" type="line"/>
      <point x="296" y="1218" type="line"/>
      <point x="296" y="74" type="line"/>
      <point x="70" y="57" type="line"/>
      <point x="70" y="0" type="line"/>
      <point x="741" y="0" type="line"/>
      <point x="772" y="-4"/>
      <point x="814" y="-262"/>
      <point x="814" y="-298" type="curve"/>
      <point x="1024" y="-298" type="line"/>
      <point x="1035" y="-305"/>
      <point x="1078" y="104"/>
    </contour>
  </outline>
</glyph>
<glyph name="gestrokehook-cy.sc" format="1">
  <advance width="1321"/>
  <outline>
    <contour>
      <point x="1016" y="57" type="curve"/>
      <point x="700" y="74" type="line"/>
      <point x="700" y="610" type="line"/>
      <point x="961" y="610" type="line"/>
      <point x="961" y="675" type="line"/>
      <point x="700" y="675" type="line"/>
      <point x="700" y="1234" type="line"/>
      <point x="999" y="1227" type="line"/>
      <point x="1080" y="884" type="line"/>
      <point x="1308" y="884" type="line"/>
      <point x="1272" y="1292" type="line"/>
      <point x="73" y="1292" type="line"/>
      <point x="73" y="1238" type="line"/>
      <point x="296" y="1218" type="line"/>
      <point x="296" y="675" type="line"/>
      <point x="109" y="675" type="line"/>
      <point x="109" y="610" type="line"/>
      <point x="296" y="610" type="line"/>
      <point x="296" y="74" type="line"/>
      <point x="70" y="57" type="line"/>
      <point x="70" y="0" type="line"/>
      <point x="883" y="0" type="line"/>
      <point x="892" y="-65"/>
      <point x="900" y="-125"/>
      <point x="900" y="-162" type="curve" smooth="yes"/>
      <point x="900" y="-267"/>
      <point x="850" y="-309"/>
      <point x="759" y="-309" type="curve" smooth="yes"/>
      <point x="744" y="-309"/>
      <point x="698" y="-305"/>
      <point x="672" y="-293" type="curve"/>
      <point x="672" y="-373" type="line"/>
      <point x="708" y="-384"/>
      <point x="776" y="-393"/>
      <point x="821" y="-393" type="curve" smooth="yes"/>
      <point x="1017" y="-393"/>
      <point x="1150" y="-325"/>
      <point x="1150" y="-232" type="curve" smooth="yes"/>
      <point x="1150" y="-129"/>
      <point x="1115" y="-10"/>
    </contour>
  </outline>
</glyph>
<glyph name="ghemiddlehook-cy.sc" format="1">
  <advance width="1645"/>
  <outline>
    <contour>
      <point x="709" y="668" type="curve"/>
      <point x="709" y="1233" type="line"/>
      <point x="1016" y="1220" type="line"/>
      <point x="1086" y="966" type="line"/>
      <point x="1313" y="966" type="line"/>
      <point x="1290" y="1292" type="line"/>
      <point x="82" y="1292" type="line"/>
      <point x="82" y="1238" type="line"/>
      <point x="303" y="1218" type="line"/>
      <point x="303" y="74" type="line"/>
      <point x="77" y="58" type="line"/>
      <point x="77" y="0" type="line"/>
      <point x="983" y="0" type="line"/>
      <point x="983" y="58" type="line"/>
      <point x="709" y="74" type="line"/>
      <point x="709" y="612" type="line"/>
      <point x="756" y="654"/>
      <point x="844" y="664"/>
      <point x="951" y="664" type="curve" smooth="yes"/>
      <point x="1118" y="664"/>
      <point x="1184" y="536"/>
      <point x="1184" y="306" type="curve" smooth="yes"/>
      <point x="1184" y="-61"/>
      <point x="1100" y="-264"/>
      <point x="936" y="-264" type="curve" smooth="yes"/>
      <point x="824" y="-264"/>
      <point x="793" y="-265"/>
      <point x="769" y="-265" type="curve"/>
      <point x="786" y="-330" type="line"/>
      <point x="820" y="-340"/>
      <point x="889" y="-339"/>
      <point x="998" y="-339" type="curve" smooth="yes"/>
      <point x="1348" y="-339"/>
      <point x="1597" y="-40"/>
      <point x="1597" y="308" type="curve" smooth="yes"/>
      <point x="1597" y="519"/>
      <point x="1381" y="738"/>
      <point x="1045" y="738" type="curve" smooth="yes"/>
      <point x="931" y="738"/>
      <point x="762" y="720"/>
    </contour>
  </outline>
</glyph>
<glyph name="gheupturn-cy.sc" format="1">
  <advance width="1268"/>
  <outline>
    <contour>
      <point x="705" y="-144" type="move" name="mark0"/>
    </contour>
    <contour>
      <point x="1030" y="1598" type="line"/>
      <point x="942" y="1292" type="line"/>
      <point x="74" y="1292" type="line"/>
      <point x="74" y="1238" type="line"/>
      <point x="286" y="1217" type="line"/>
      <point x="286" y="75" type="line"/>
      <point x="72" y="57" type="line"/>
      <point x="72" y="0" type="line"/>
      <point x="1010" y="0" type="line"/>
      <point x="1010" y="57" type="line"/>
      <point x="691" y="75" type="line"/>
      <point x="691" y="1234" type="line"/>
      <point x="1205" y="1229" type="line"/>
      <point x="1222" y="1598" type="line"/>
    </contour>
  </outline>
</glyph>
<glyph name="haabkhasian-cy.sc" format="1">
  <advance width="1950"/>
  <outline>
    <contour>
      <point x="1020" y="1225" type="curve"/>
      <point x="1041" y="1300" type="line"/>
      <point x="1004" y="1304"/>
      <point x="928" y="1307"/>
      <point x="882" y="1307" type="curve" smooth="yes"/>
      <point x="397" y="1307"/>
      <point x="64" y="1076"/>
      <point x="64" y="634" type="curve" smooth="yes"/>
      <point x="64" y="264"/>
      <point x="273" y="-20"/>
      <point x="839" y="-20" type="curve" smooth="yes"/>
      <point x="965" y="-20"/>
      <point x="1104" y="2"/>
      <point x="1199" y="51" type="curve"/>
      <point x="1310" y="15"/>
      <point x="1442" y="-20"/>
      <point x="1582" y="-20" type="curve" smooth="yes"/>
      <point x="1710" y="-20"/>
      <point x="1812" y="2"/>
      <point x="1903" y="50" type="curve"/>
      <point x="1858" y="90" type="line"/>
      <point x="1797" y="58"/>
      <point x="1719" y="49"/>
      <point x="1644" y="49" type="curve" smooth="yes"/>
      <point x="1570" y="49"/>
      <point x="1499" y="69"/>
      <point x="1433" y="101" type="curve"/>
      <point x="1569" y="159"/>
      <point x="1764" y="348"/>
      <point x="1764" y="602" type="curve" smooth="yes"/>
      <point x="1764" y="954"/>
      <point x="1481" y="1054"/>
      <point x="1240" y="1054" type="curve" smooth="yes"/>
      <point x="990" y="1054"/>
      <point x="729" y="938"/>
      <point x="729" y="589" type="curve" smooth="yes"/>
      <point x="729" y="382"/>
      <point x="854" y="153"/>
      <point x="1033" y="85" type="curve"/>
      <point x="989" y="47"/>
      <point x="949" y="49"/>
      <point x="909" y="49" type="curve" smooth="yes"/>
      <point x="695" y="49"/>
      <point x="492" y="268"/>
      <point x="492" y="636" type="curve" smooth="yes"/>
      <point x="492" y="1060"/>
      <point x="714" y="1239"/>
      <point x="923" y="1239" type="curve" smooth="yes"/>
      <point x="956" y="1239"/>
      <point x="991" y="1235"/>
    </contour>
    <contour>
      <point x="1239" y="1002" type="curve" smooth="yes"/>
      <point x="1351" y="1002"/>
      <point x="1379" y="855"/>
      <point x="1379" y="600" type="curve" smooth="yes"/>
      <point x="1379" y="371"/>
      <point x="1340" y="204"/>
      <point x="1264" y="129" type="curve"/>
      <point x="1148" y="214"/>
      <point x="1089" y="396"/>
      <point x="1089" y="579" type="curve" smooth="yes"/>
      <point x="1089" y="880"/>
      <point x="1124" y="1002"/>
    </contour>
  </outline>
</glyph>
<glyph name="hadescender-cy.sc" format="1">
  <advance width="1592"/>
  <outline>
    <contour>
      <point x="788" y="-144" type="move" name="mark0"/>
    </contour>
    <contour>
      <point x="1598" y="74" type="curve"/>
      <point x="1414" y="74" type="line"/>
      <point x="969" y="662" type="line"/>
      <point x="1354" y="1218" type="line"/>
      <point x="1527" y="1235" type="line"/>
      <point x="1527" y="1292" type="line"/>
      <point x="962" y="1292" type="line"/>
      <point x="962" y="1235" type="line"/>
      <point x="1135" y="1221" type="line"/>
      <point x="878" y="707" type="line"/>
      <point x="637" y="1219" type="line"/>
      <point x="788" y="1235" type="line"/>
      <point x="788" y="1292" type="line"/>
      <point x="33" y="1292" type="line"/>
      <point x="33" y="1235" type="line"/>
      <point x="164" y="1218" type="line"/>
      <point x="582" y="668" type="line"/>
      <point x="196" y="72" type="line"/>
      <point x="26" y="58" type="line"/>
      <point x="26" y="0" type="line"/>
      <point x="613" y="0" type="line"/>
      <point x="613" y="58" type="line"/>
      <point x="424" y="72" type="line"/>
      <point x="680" y="622" type="line"/>
      <point x="944" y="74" type="line"/>
      <point x="790" y="58" type="line"/>
      <point x="790" y="0" type="line"/>
      <point x="1263" y="0" type="line"/>
      <point x="1293" y="7"/>
      <point x="1333" y="-252"/>
      <point x="1334" y="-290" type="curve"/>
      <point x="1544" y="-290" type="line"/>
      <point x="1556" y="-288"/>
      <point x="1598" y="117"/>
    </contour>
  </outline>
</glyph>
<glyph name="hahook-cy.sc" format="1">
  <advance width="1555"/>
  <outline>
    <contour>
      <point x="991" y="668" type="curve"/>
      <point x="1354" y="1218" type="line"/>
      <point x="1527" y="1235" type="line"/>
      <point x="1527" y="1292" type="line"/>
      <point x="962" y="1292" type="line"/>
      <point x="962" y="1235" type="line"/>
      <point x="1135" y="1221" type="line"/>
      <point x="889" y="716" type="line"/>
      <point x="637" y="1219" type="line"/>
      <point x="788" y="1235" type="line"/>
      <point x="788" y="1292" type="line"/>
      <point x="33" y="1292" type="line"/>
      <point x="33" y="1235" type="line"/>
      <point x="164" y="1218" type="line"/>
      <point x="594" y="674" type="line"/>
      <point x="196" y="72" type="line"/>
      <point x="26" y="58" type="line"/>
      <point x="26" y="0" type="line"/>
      <point x="613" y="0" type="line"/>
      <point x="613" y="58" type="line"/>
      <point x="424" y="72" type="line"/>
      <point x="700" y="626" type="line"/>
      <point x="868" y="150"/>
      <point x="1060" y="46"/>
      <point x="1060" y="-36" type="curve" smooth="yes"/>
      <point x="1060" y="-137"/>
      <point x="1044" y="-204"/>
      <point x="892" y="-245" type="curve"/>
      <point x="1008" y="-336" type="line"/>
      <point x="1231" y="-256"/>
      <point x="1429" y="-118"/>
      <point x="1429" y="-16" type="curve" smooth="yes"/>
      <point x="1429" y="119"/>
      <point x="1166" y="287"/>
    </contour>
  </outline>
</glyph>
<glyph name="hardsign-cy.sc" format="1">
  <advance width="1858"/>
  <outline>
    <contour>
      <point x="923" y="-144" type="move" name="mark0"/>
    </contour>
    <contour>
      <point x="1261" y="796" type="curve" smooth="yes"/>
      <point x="1004" y="796" type="line"/>
      <point x="1004" y="1221" type="line"/>
      <point x="1246" y="1235" type="line"/>
      <point x="1246" y="1292" type="line"/>
      <point x="95" y="1292" type="line"/>
      <point x="57" y="919" type="line"/>
      <point x="286" y="919" type="line"/>
      <point x="368" y="1220" type="line"/>
      <point x="600" y="1233" type="line"/>
      <point x="600" y="74" type="line"/>
      <point x="287" y="57" type="line"/>
      <point x="287" y="0" type="line"/>
      <point x="816" y="0" type="line" smooth="yes"/>
      <point x="904" y="0"/>
      <point x="1211" y="-14"/>
      <point x="1261" y="-14" type="curve" smooth="yes"/>
      <point x="1607" y="-14"/>
      <point x="1811" y="127"/>
      <point x="1811" y="410" type="curve" smooth="yes"/>
      <point x="1811" y="653"/>
      <point x="1647" y="796"/>
    </contour>
    <contour>
      <point x="1004" y="67" type="curve"/>
      <point x="1004" y="721" type="line"/>
      <point x="1153" y="721" type="line" smooth="yes"/>
      <point x="1300" y="721"/>
      <point x="1394" y="605"/>
      <point x="1394" y="404" type="curve" smooth="yes"/>
      <point x="1394" y="162"/>
      <point x="1338" y="50"/>
      <point x="1132" y="50" type="curve" smooth="yes"/>
      <point x="1082" y="50"/>
      <point x="1038" y="59"/>
    </contour>
  </outline>
</glyph>
<glyph name="hastroke-cy.sc" format="1">
  <advance width="1555"/>
  <outline>
    <contour>
      <point x="1346" y="700" type="line"/>
      <point x="205" y="700" type="line"/>
      <point x="205" y="636" type="line"/>
      <point x="1346" y="636" type="line"/>
    </contour>
    <contour>
      <point x="192" y="72" type="line"/>
      <point x="22" y="58" type="line"/>
      <point x="22" y="0" type="line"/>
      <point x="609" y="0" type="line"/>
      <point x="609" y="58" type="line"/>
      <point x="420" y="72" type="line"/>
      <point x="676" y="622" type="line"/>
      <point x="941" y="74" type="line"/>
      <point x="787" y="58" type="line"/>
      <point x="787" y="0" type="line"/>
      <point x="1541" y="0" type="line"/>
      <point x="1541" y="58" type="line"/>
      <point x="1411" y="74" type="line"/>
      <point x="965" y="662" type="line"/>
      <point x="1351" y="1218" type="line"/>
      <point x="1523" y="1235" type="line"/>
      <point x="1523" y="1292" type="line"/>
      <point x="958" y="1292" type="line"/>
      <point x="958" y="1235" type="line"/>
      <point x="1131" y="1221" type="line"/>
      <point x="874" y="707" type="line"/>
      <point x="633" y="1219" type="line"/>
      <point x="785" y="1235" type="line"/>
      <point x="785" y="1292" type="line"/>
      <point x="29" y="1292" type="line"/>
      <point x="29" y="1235" type="line"/>
      <point x="161" y="1218" type="line"/>
      <point x="578" y="668" type="line"/>
    </contour>
  </outline>
</glyph>
<glyph name="ia-cy.sc" format="1">
  <advance width="1584"/>
  <outline>
    <contour>
      <point x="944" y="580" type="curve"/>
      <point x="944" y="72" type="line"/>
      <point x="765" y="57" type="line"/>
      <point x="765" y="0" type="line"/>
      <point x="1514" y="0" type="line"/>
      <point x="1514" y="57" type="line"/>
      <point x="1348" y="72" type="line"/>
      <point x="1348" y="1221" type="line"/>
      <point x="1504" y="1235" type="line"/>
      <point x="1504" y="1292" type="line"/>
      <point x="1153" y="1292" type="line" smooth="yes"/>
      <point x="1014" y="1292"/>
      <point x="940" y="1307"/>
      <point x="768" y="1307" type="curve" smooth="yes"/>
      <point x="323" y="1307"/>
      <point x="165" y="1274"/>
      <point x="165" y="929" type="curve" smooth="yes"/>
      <point x="165" y="727"/>
      <point x="266" y="619"/>
      <point x="477" y="577" type="curve"/>
      <point x="216" y="497"/>
      <point x="193" y="89"/>
      <point x="87" y="75" type="curve"/>
      <point x="16" y="57" type="line"/>
      <point x="16" y="0" type="line"/>
      <point x="458" y="0" type="line" smooth="yes"/>
      <point x="541" y="0"/>
      <point x="603" y="478"/>
      <point x="750" y="580" type="curve"/>
      <point x="862" y="581"/>
      <point x="908" y="581"/>
    </contour>
    <contour>
      <point x="944" y="1220" type="curve"/>
      <point x="944" y="661" type="line"/>
      <point x="924" y="658"/>
      <point x="861" y="655"/>
      <point x="829" y="655" type="curve" smooth="yes"/>
      <point x="674" y="655"/>
      <point x="592" y="767"/>
      <point x="592" y="954" type="curve" smooth="yes"/>
      <point x="592" y="1180"/>
      <point x="685" y="1234"/>
      <point x="825" y="1234" type="curve" smooth="yes"/>
      <point x="894" y="1234"/>
      <point x="923" y="1221"/>
    </contour>
  </outline>
</glyph>
<glyph name="ii-cy.sc" format="1">
  <advance width="1831"/>
  <outline>
    <contour>
      <point x="930" y="1265" type="move" name="top"/>
    </contour>
    <contour>
      <point x="1644" y="0" type="move" name="bottomright"/>
    </contour>
    <contour>
      <point x="87" y="1292" type="line"/>
      <point x="87" y="1235" type="line"/>
      <point x="229" y="1220" type="line"/>
      <point x="229" y="73" type="line"/>
      <point x="85" y="58" type="line"/>
      <point x="85" y="0" type="line"/>
      <point x="800" y="0" type="line"/>
      <point x="800" y="58" type="line"/>
      <point x="634" y="75" type="line"/>
      <point x="634" y="148" type="line"/>
      <point x="1101" y="845" type="line"/>
      <point x="1193" y="1059" type="line"/>
      <point x="1193" y="74" type="line"/>
      <point x="1040" y="58" type="line"/>
      <point x="1040" y="0" type="line"/>
      <point x="1739" y="0" type="line"/>
      <point x="1739" y="58" type="line"/>
      <point x="1595" y="74" type="line"/>
      <point x="1595" y="1221" type="line"/>
      <point x="1739" y="1235" type="line"/>
      <point x="1739" y="1292" type="line"/>
      <point x="1040" y="1292" type="line"/>
      <point x="1040" y="1235" type="line"/>
      <point x="1193" y="1221" type="line"/>
      <point x="1193" y="1163" type="line"/>
      <point x="739" y="483" type="line"/>
      <point x="634" y="250" type="line"/>
      <point x="634" y="1221" type="line"/>
      <point x="798" y="1237" type="line"/>
      <point x="798" y="1292" type="line"/>
    </contour>
  </outline>
</glyph>
<glyph name="iishorttail-cy.sc" format="1">
  <advance width="1831"/>
  <outline>
    <contour>
      <point x="1596" y="0" type="move" name="bottomright"/>
    </contour>
    <contour>
      <point x="1765" y="0" type="curve"/>
      <point x="1765" y="73" type="line"/>
      <point x="1551" y="73" type="line"/>
      <point x="1445" y="0" type="line"/>
      <point x="1459" y="0" type="line"/>
      <point x="1435" y="-34"/>
      <point x="1381" y="-326"/>
      <point x="1317" y="-296" type="curve"/>
      <point x="1527" y="-296" type="line"/>
      <point x="1574" y="-293"/>
      <point x="1700" y="32"/>
    </contour>
    <contour>
      <point x="699" y="1858" type="curve" smooth="yes"/>
      <point x="446" y="1858" type="line"/>
      <point x="446" y="1849"/>
      <point x="444" y="1840"/>
      <point x="444" y="1834" type="curve" smooth="yes"/>
      <point x="444" y="1630"/>
      <point x="631" y="1474"/>
      <point x="914" y="1474" type="curve" smooth="yes"/>
      <point x="1211" y="1474"/>
      <point x="1384" y="1627"/>
      <point x="1384" y="1834" type="curve" smooth="yes"/>
      <point x="1384" y="1843"/>
      <point x="1385" y="1846"/>
      <point x="1382" y="1858" type="curve"/>
      <point x="1130" y="1858" type="line" smooth="yes"/>
      <point x="1097" y="1858"/>
      <point x="1092" y="1836"/>
      <point x="1092" y="1803" type="curve" smooth="yes"/>
      <point x="1092" y="1694"/>
      <point x="1037" y="1557"/>
      <point x="917" y="1557" type="curve" smooth="yes"/>
      <point x="792" y="1557"/>
      <point x="735" y="1694"/>
      <point x="735" y="1803" type="curve" smooth="yes"/>
      <point x="735" y="1836"/>
      <point x="731" y="1858"/>
    </contour>
    <contour>
      <point x="87" y="1292" type="line"/>
      <point x="87" y="1235" type="line"/>
      <point x="229" y="1220" type="line"/>
      <point x="229" y="73" type="line"/>
      <point x="85" y="58" type="line"/>
      <point x="85" y="0" type="line"/>
      <point x="800" y="0" type="line"/>
      <point x="800" y="58" type="line"/>
      <point x="634" y="75" type="line"/>
      <point x="634" y="148" type="line"/>
      <point x="1101" y="845" type="line"/>
      <point x="1193" y="1059" type="line"/>
      <point x="1193" y="74" type="line"/>
      <point x="1040" y="58" type="line"/>
      <point x="1040" y="0" type="line"/>
      <point x="1739" y="0" type="line"/>
      <point x="1739" y="58" type="line"/>
      <point x="1595" y="74" type="line"/>
      <point x="1595" y="1221" type="line"/>
      <point x="1739" y="1235" type="line"/>
      <point x="1739" y="1292" type="line"/>
      <point x="1040" y="1292" type="line"/>
      <point x="1040" y="1235" type="line"/>
      <point x="1193" y="1221" type="line"/>
      <point x="1193" y="1163" type="line"/>
      <point x="739" y="483" type="line"/>
      <point x="634" y="250" type="line"/>
      <point x="634" y="1221" type="line"/>
      <point x="798" y="1237" type="line"/>
      <point x="798" y="1292" type="line"/>
    </contour>
  </outline>
</glyph>
<glyph name="iu-cy.sc" format="1">
  <advance width="2393"/>
  <outline>
    <contour>
      <point x="909" y="702" type="curve"/>
      <point x="641" y="702" type="line"/>
      <point x="641" y="1221" type="line"/>
      <point x="805" y="1235" type="line"/>
      <point x="805" y="1292" type="line"/>
      <point x="82" y="1292" type="line"/>
      <point x="82" y="1235" type="line"/>
      <point x="233" y="1221" type="line"/>
      <point x="233" y="74" type="line"/>
      <point x="79" y="58" type="line"/>
      <point x="79" y="0" type="line"/>
      <point x="810" y="0" type="line"/>
      <point x="810" y="58" type="line"/>
      <point x="642" y="74" type="line"/>
      <point x="642" y="639" type="line"/>
      <point x="907" y="639" type="line"/>
      <point x="925" y="251"/>
      <point x="1128" y="-16"/>
      <point x="1607" y="-16" type="curve" smooth="yes"/>
      <point x="2044" y="-16"/>
      <point x="2317" y="227"/>
      <point x="2319" y="655" type="curve" smooth="yes"/>
      <point x="2320" y="1030"/>
      <point x="2131" y="1308"/>
      <point x="1622" y="1307" type="curve" smooth="yes"/>
      <point x="1221" y="1306"/>
      <point x="950" y="1088"/>
    </contour>
    <contour>
      <point x="1613" y="1231" type="curve" smooth="yes"/>
      <point x="1777" y="1231"/>
      <point x="1871" y="948"/>
      <point x="1871" y="656" type="curve" smooth="yes"/>
      <point x="1871" y="251"/>
      <point x="1790" y="63"/>
      <point x="1616" y="63" type="curve" smooth="yes"/>
      <point x="1447" y="63"/>
      <point x="1349" y="342"/>
      <point x="1349" y="628" type="curve" smooth="yes"/>
      <point x="1349" y="1050"/>
      <point x="1441" y="1231"/>
    </contour>
  </outline>
</glyph>
<glyph name="izhitsa-cy.sc" format="1">
  <advance width="1662"/>
  <outline>
    <contour>
      <point x="1166" y="1080" type="curve"/>
      <point x="950" y="361" type="line"/>
      <point x="913" y="89" type="line"/>
      <point x="871" y="363" type="line"/>
      <point x="601" y="1221" type="line"/>
      <point x="770" y="1235" type="line"/>
      <point x="770" y="1292" type="line"/>
      <point x="32" y="1292" type="line"/>
      <point x="32" y="1235" type="line"/>
      <point x="159" y="1221" type="line"/>
      <point x="675" y="-15" type="line"/>
      <point x="1004" y="-15" type="line"/>
      <point x="1380" y="1004" type="line"/>
      <point x="1434" y="1185"/>
      <point x="1516" y="1193"/>
      <point x="1636" y="1193" type="curve" smooth="yes"/>
      <point x="1637" y="1193"/>
      <point x="1641" y="1193"/>
      <point x="1641" y="1193" type="curve"/>
      <point x="1641" y="1282" type="line"/>
      <point x="1617" y="1284"/>
      <point x="1558" y="1290"/>
      <point x="1443" y="1290" type="curve" smooth="yes"/>
      <point x="1320" y="1290"/>
      <point x="1202" y="1245"/>
    </contour>
  </outline>
</glyph>
<glyph name="ka-cy.sc" format="1">
  <advance width="1586"/>
  <outline>
    <contour>
      <point x="793" y="1265" type="move" name="top"/>
    </contour>
    <contour>
      <point x="793" y="648" type="move" name="center"/>
    </contour>
    <contour>
      <point x="1530" y="0" type="move" name="bottomright"/>
    </contour>
    <contour>
      <point x="989" y="655" type="curve"/>
      <point x="1360" y="1221" type="line"/>
      <point x="1543" y="1235" type="line"/>
      <point x="1543" y="1292" type="line"/>
      <point x="946" y="1292" type="line"/>
      <point x="946" y="1235" type="line"/>
      <point x="1080" y="1220" type="line"/>
      <point x="760" y="665" type="line"/>
      <point x="638" y="665" type="line"/>
      <point x="638" y="1221" type="line"/>
      <point x="785" y="1235" type="line"/>
      <point x="785" y="1292" type="line"/>
      <point x="81" y="1292" type="line"/>
      <point x="81" y="1235" type="line"/>
      <point x="234" y="1221" type="line"/>
      <point x="234" y="74" type="line"/>
      <point x="81" y="61" type="line"/>
      <point x="81" y="0" type="line"/>
      <point x="828" y="0" type="line"/>
      <point x="828" y="59" type="line"/>
      <point x="638" y="74" type="line"/>
      <point x="638" y="600" type="line"/>
      <point x="700" y="600" type="line" smooth="yes"/>
      <point x="934" y="600"/>
      <point x="983" y="0"/>
      <point x="1157" y="0" type="curve"/>
      <point x="1579" y="0" type="line"/>
      <point x="1579" y="58" type="line"/>
      <point x="1503" y="74" type="line" smooth="yes"/>
      <point x="1396" y="99"/>
      <point x="1305" y="576"/>
    </contour>
  </outline>
</glyph>
<glyph name="kabashkir-cy.sc" format="1">
  <advance width="1952"/>
  <outline>
    <contour>
      <point x="1109" y="-144" type="move" name="mark0"/>
    </contour>
    <contour>
      <point x="1400" y="659" type="curve"/>
      <point x="1750" y="1221" type="line"/>
      <point x="1924" y="1235" type="line"/>
      <point x="1924" y="1292" type="line"/>
      <point x="1313" y="1292" type="line"/>
      <point x="1313" y="1235" type="line"/>
      <point x="1469" y="1220" type="line"/>
      <point x="1181" y="675" type="line"/>
      <point x="1012" y="675" type="line"/>
      <point x="1012" y="1221" type="line"/>
      <point x="1160" y="1235" type="line"/>
      <point x="1160" y="1292" type="line"/>
      <point x="89" y="1292" type="line"/>
      <point x="60" y="915" type="line"/>
      <point x="286" y="915" type="line"/>
      <point x="364" y="1220" type="line"/>
      <point x="608" y="1234" type="line"/>
      <point x="608" y="74" type="line"/>
      <point x="441" y="58" type="line"/>
      <point x="441" y="0" type="line"/>
      <point x="1197" y="0" type="line"/>
      <point x="1197" y="59" type="line"/>
      <point x="1012" y="72" type="line"/>
      <point x="1012" y="596" type="line"/>
      <point x="1055" y="596" type="line" smooth="yes"/>
      <point x="1292" y="596"/>
      <point x="1392" y="0"/>
      <point x="1586" y="0" type="curve"/>
      <point x="1984" y="0" type="line"/>
      <point x="1984" y="58" type="line"/>
      <point x="1890" y="77" type="line" smooth="yes"/>
      <point x="1795" y="102"/>
      <point x="1664" y="566"/>
    </contour>
  </outline>
</glyph>
<glyph name="kadescender-cy.sc" format="1">
  <advance width="1633"/>
  <outline>
    <contour>
      <point x="985" y="655" type="curve"/>
      <point x="1356" y="1221" type="line"/>
      <point x="1539" y="1235" type="line"/>
      <point x="1539" y="1292" type="line"/>
      <point x="941" y="1292" type="line"/>
      <point x="941" y="1235" type="line"/>
      <point x="1076" y="1220" type="line"/>
      <point x="755" y="665" type="line"/>
      <point x="634" y="665" type="line"/>
      <point x="634" y="1221" type="line"/>
      <point x="781" y="1235" type="line"/>
      <point x="781" y="1292" type="line"/>
      <point x="77" y="1292" type="line"/>
      <point x="77" y="1235" type="line"/>
      <point x="228" y="1221" type="line"/>
      <point x="228" y="74" type="line"/>
      <point x="77" y="61" type="line"/>
      <point x="77" y="0" type="line"/>
      <point x="823" y="0" type="line"/>
      <point x="823" y="59" type="line"/>
      <point x="634" y="74" type="line"/>
      <point x="634" y="600" type="line"/>
      <point x="695" y="600" type="line" smooth="yes"/>
      <point x="929" y="600"/>
      <point x="979" y="0"/>
      <point x="1152" y="0" type="curve" smooth="yes"/>
      <point x="1313" y="0" type="line"/>
      <point x="1341" y="2"/>
      <point x="1386" y="-279"/>
      <point x="1386" y="-298" type="curve"/>
      <point x="1595" y="-298" type="line"/>
      <point x="1605" y="-148"/>
      <point x="1647" y="-37"/>
      <point x="1650" y="74" type="curve"/>
      <point x="1498" y="74" type="line"/>
      <point x="1393" y="109"/>
      <point x="1300" y="576"/>
    </contour>
  </outline>
</glyph>
<glyph name="kahook-cy.sc" format="1">
  <advance width="1611"/>
  <outline>
    <contour>
      <point x="638" y="676" type="curve"/>
      <point x="638" y="1221" type="line"/>
      <point x="785" y="1235" type="line"/>
      <point x="785" y="1292" type="line"/>
      <point x="81" y="1292" type="line"/>
      <point x="81" y="1235" type="line"/>
      <point x="234" y="1221" type="line"/>
      <point x="234" y="74" type="line"/>
      <point x="81" y="61" type="line"/>
      <point x="81" y="0" type="line"/>
      <point x="828" y="0" type="line"/>
      <point x="828" y="59" type="line"/>
      <point x="638" y="74" type="line"/>
      <point x="638" y="615" type="line"/>
      <point x="685" y="636"/>
      <point x="770" y="655"/>
      <point x="882" y="655" type="curve" smooth="yes"/>
      <point x="1052" y="655"/>
      <point x="1126" y="537"/>
      <point x="1126" y="306" type="curve" smooth="yes"/>
      <point x="1126" y="-83"/>
      <point x="1067" y="-254"/>
      <point x="889" y="-254" type="curve" smooth="yes"/>
      <point x="803" y="-254"/>
      <point x="764" y="-255"/>
      <point x="744" y="-252" type="curve"/>
      <point x="759" y="-330" type="line"/>
      <point x="792" y="-338"/>
      <point x="849" y="-337"/>
      <point x="957" y="-337" type="curve" smooth="yes"/>
      <point x="1308" y="-337"/>
      <point x="1529" y="-50"/>
      <point x="1529" y="309" type="curve" smooth="yes"/>
      <point x="1529" y="533"/>
      <point x="1345" y="732"/>
      <point x="1052" y="736" type="curve"/>
      <point x="1375" y="1221" type="line"/>
      <point x="1551" y="1235" type="line"/>
      <point x="1551" y="1292" type="line"/>
      <point x="939" y="1292" type="line"/>
      <point x="939" y="1235" type="line"/>
      <point x="1098" y="1221" type="line"/>
      <point x="806" y="730" type="line"/>
      <point x="762" y="717"/>
      <point x="665" y="696"/>
    </contour>
  </outline>
</glyph>
<glyph name="kastroke-cy.sc" format="1">
  <advance width="1593"/>
  <outline>
    <contour>
      <point x="742" y="-144" type="move" name="mark0"/>
    </contour>
    <contour>
      <point x="1035" y="655" type="curve"/>
      <point x="1368" y="1221" type="line"/>
      <point x="1550" y="1235" type="line"/>
      <point x="1550" y="1292" type="line"/>
      <point x="952" y="1292" type="line"/>
      <point x="952" y="1235" type="line"/>
      <point x="1090" y="1220" type="line"/>
      <point x="806" y="665" type="line"/>
      <point x="645" y="665" type="line"/>
      <point x="645" y="915" type="line"/>
      <point x="821" y="915" type="line"/>
      <point x="821" y="993" type="line"/>
      <point x="645" y="993" type="line"/>
      <point x="645" y="1221" type="line"/>
      <point x="794" y="1235" type="line"/>
      <point x="794" y="1292" type="line"/>
      <point x="87" y="1292" type="line"/>
      <point x="87" y="1235" type="line"/>
      <point x="242" y="1221" type="line"/>
      <point x="242" y="993" type="line"/>
      <point x="77" y="993" type="line"/>
      <point x="77" y="915" type="line"/>
      <point x="242" y="915" type="line"/>
      <point x="242" y="75" type="line"/>
      <point x="87" y="61" type="line"/>
      <point x="87" y="0" type="line"/>
      <point x="836" y="0" type="line"/>
      <point x="836" y="59" type="line"/>
      <point x="645" y="75" type="line"/>
      <point x="645" y="601" type="line"/>
      <point x="747" y="601" type="line" smooth="yes"/>
      <point x="980" y="601"/>
      <point x="991" y="0"/>
      <point x="1166" y="0" type="curve" smooth="yes"/>
      <point x="1586" y="0" type="line"/>
      <point x="1586" y="58" type="line"/>
      <point x="1513" y="75" type="line" smooth="yes"/>
      <point x="1405" y="98"/>
      <point x="1353" y="576"/>
    </contour>
  </outline>
</glyph>
<glyph name="kaverticalstroke-cy.sc" format="1">
  <advance width="1748"/>
  <outline>
    <contour>
      <point x="1194" y="656" type="curve"/>
      <point x="1500" y="1220" type="line"/>
      <point x="1679" y="1235" type="line"/>
      <point x="1679" y="1292" type="line"/>
      <point x="1062" y="1292" type="line"/>
      <point x="1062" y="1235" type="line"/>
      <point x="1220" y="1218" type="line"/>
      <point x="974" y="675" type="line"/>
      <point x="908" y="675" type="line"/>
      <point x="908" y="964" type="line"/>
      <point x="765" y="964" type="line"/>
      <point x="765" y="675" type="line"/>
      <point x="638" y="675" type="line"/>
      <point x="638" y="1221" type="line"/>
      <point x="785" y="1235" type="line"/>
      <point x="785" y="1292" type="line"/>
      <point x="81" y="1292" type="line"/>
      <point x="81" y="1235" type="line"/>
      <point x="234" y="1221" type="line"/>
      <point x="234" y="74" type="line"/>
      <point x="81" y="61" type="line"/>
      <point x="81" y="0" type="line"/>
      <point x="828" y="0" type="line"/>
      <point x="828" y="59" type="line"/>
      <point x="638" y="74" type="line"/>
      <point x="638" y="596" type="line"/>
      <point x="765" y="596" type="line"/>
      <point x="765" y="314" type="line"/>
      <point x="908" y="314" type="line"/>
      <point x="908" y="593" type="line"/>
      <point x="963" y="593" type="line" smooth="yes"/>
      <point x="1141" y="631"/>
      <point x="1166" y="0"/>
      <point x="1393" y="0" type="curve" smooth="yes"/>
      <point x="1756" y="2" type="line"/>
      <point x="1756" y="58" type="line"/>
      <point x="1683" y="77" type="line" smooth="yes"/>
      <point x="1587" y="103"/>
      <point x="1471" y="555"/>
    </contour>
  </outline>
</glyph>
<glyph name="komide-cy.sc" format="1">
  <advance width="1488"/>
  <outline>
    <contour>
      <point x="1024" y="0" type="curve"/>
      <point x="1410" y="0" type="line"/>
      <point x="1410" y="58" type="line"/>
      <point x="1255" y="72" type="line"/>
      <point x="1255" y="1229" type="line"/>
      <point x="1408" y="1251" type="line"/>
      <point x="1408" y="1292" type="line"/>
      <point x="607" y="1292" type="line"/>
      <point x="607" y="1251" type="line"/>
      <point x="850" y="1229" type="line"/>
      <point x="850" y="769" type="line"/>
      <point x="806" y="775"/>
      <point x="697" y="785"/>
      <point x="598" y="785" type="curve" smooth="yes"/>
      <point x="231" y="785"/>
      <point x="50" y="656"/>
      <point x="50" y="366" type="curve" smooth="yes"/>
      <point x="50" y="131"/>
      <point x="268" y="-12"/>
      <point x="583" y="-12" type="curve" smooth="yes"/>
      <point x="748" y="-12"/>
      <point x="861" y="-8"/>
    </contour>
    <contour>
      <point x="850" y="698" type="curve"/>
      <point x="850" y="81" type="line"/>
      <point x="816" y="70"/>
      <point x="772" y="67"/>
      <point x="724" y="67" type="curve" smooth="yes"/>
      <point x="538" y="67"/>
      <point x="479" y="159"/>
      <point x="479" y="377" type="curve" smooth="yes"/>
      <point x="479" y="612"/>
      <point x="548" y="716"/>
      <point x="702" y="716" type="curve" smooth="yes"/>
      <point x="774" y="716"/>
      <point x="806" y="707"/>
    </contour>
  </outline>
</glyph>
<glyph name="komidje-cy.sc" format="1">
  <advance width="2259"/>
  <outline>
    <contour>
      <point x="2096" y="287" type="curve" smooth="yes"/>
      <point x="2096" y="613" type="line"/>
      <point x="2236" y="629" type="line"/>
      <point x="2236" y="697" type="line"/>
      <point x="1534" y="697" type="line"/>
      <point x="1534" y="629" type="line"/>
      <point x="1687" y="612" type="line"/>
      <point x="1687" y="328" type="line" smooth="yes"/>
      <point x="1687" y="143"/>
      <point x="1628" y="59"/>
      <point x="1476" y="59" type="curve" smooth="yes"/>
      <point x="1329" y="59"/>
      <point x="1256" y="147"/>
      <point x="1253" y="333" type="curve" smooth="yes"/>
      <point x="1253" y="1228" type="line"/>
      <point x="1406" y="1251" type="line"/>
      <point x="1406" y="1292" type="line"/>
      <point x="632" y="1292" type="line"/>
      <point x="634" y="1251" type="line"/>
      <point x="849" y="1228" type="line"/>
      <point x="849" y="769" type="line"/>
      <point x="804" y="775"/>
      <point x="697" y="785"/>
      <point x="595" y="785" type="curve" smooth="yes"/>
      <point x="229" y="785"/>
      <point x="50" y="655"/>
      <point x="50" y="366" type="curve" smooth="yes"/>
      <point x="50" y="132"/>
      <point x="268" y="-12"/>
      <point x="582" y="-12" type="curve" smooth="yes"/>
      <point x="799" y="-12"/>
      <point x="918" y="-5"/>
      <point x="1017" y="59" type="curve"/>
      <point x="1118" y="14"/>
      <point x="1267" y="-14"/>
      <point x="1459" y="-14" type="curve" smooth="yes"/>
      <point x="1827" y="-14"/>
      <point x="2096" y="109"/>
    </contour>
    <contour>
      <point x="849" y="698" type="curve"/>
      <point x="849" y="293" type="line" smooth="yes"/>
      <point x="849" y="252"/>
      <point x="859" y="195"/>
      <point x="875" y="143" type="curve"/>
      <point x="845" y="89"/>
      <point x="777" y="67"/>
      <point x="723" y="67" type="curve" smooth="yes"/>
      <point x="536" y="67"/>
      <point x="478" y="160"/>
      <point x="478" y="377" type="curve" smooth="yes"/>
      <point x="478" y="612"/>
      <point x="548" y="716"/>
      <point x="700" y="716" type="curve" smooth="yes"/>
      <point x="771" y="716"/>
      <point x="806" y="707"/>
    </contour>
  </outline>
</glyph>
<glyph name="komidzje-cy.sc" format="1">
  <advance width="1548"/>
  <outline>
    <contour>
      <point x="539" y="695" type="curve" smooth="yes"/>
      <point x="427" y="695" type="line"/>
      <point x="427" y="628" type="line"/>
      <point x="555" y="628" type="line" smooth="yes"/>
      <point x="777" y="628"/>
      <point x="827" y="517"/>
      <point x="827" y="329" type="curve" smooth="yes"/>
      <point x="827" y="244"/>
      <point x="757" y="91"/>
      <point x="649" y="90" type="curve"/>
      <point x="649" y="0" type="line"/>
      <point x="1192" y="0" type="line"/>
      <point x="1204" y="13"/>
      <point x="1239" y="-198"/>
      <point x="1242" y="-296" type="curve"/>
      <point x="1443" y="-296" type="line"/>
      <point x="1460" y="123"/>
      <point x="1502" y="-71"/>
      <point x="1503" y="85" type="curve"/>
      <point x="1203" y="85" type="line"/>
      <point x="1234" y="110"/>
      <point x="1290" y="222"/>
      <point x="1290" y="324" type="curve" smooth="yes"/>
      <point x="1290" y="510"/>
      <point x="1114" y="685"/>
      <point x="848" y="682" type="curve"/>
      <point x="1037" y="710"/>
      <point x="1202" y="816"/>
      <point x="1202" y="1016" type="curve" smooth="yes"/>
      <point x="1202" y="1216"/>
      <point x="998" y="1306"/>
      <point x="610" y="1306" type="curve" smooth="yes"/>
      <point x="451" y="1306"/>
      <point x="193" y="1254"/>
      <point x="106" y="1247" type="curve"/>
      <point x="143" y="1004" type="line"/>
      <point x="363" y="1004" type="line"/>
      <point x="410" y="1152" type="line"/>
      <point x="423" y="1203"/>
      <point x="465" y="1232"/>
      <point x="566" y="1232" type="curve" smooth="yes"/>
      <point x="698" y="1232"/>
      <point x="776" y="1166"/>
      <point x="775" y="989" type="curve"/>
      <point x="775" y="805"/>
      <point x="652" y="695"/>
    </contour>
  </outline>
</glyph>
<glyph name="komilje-cy.sc" format="1">
  <advance width="2435"/>
  <outline>
    <contour>
      <point x="666" y="-144" type="move" name="mark0"/>
    </contour>
    <contour>
      <point x="2270" y="287" type="curve" smooth="yes"/>
      <point x="2270" y="613" type="line"/>
      <point x="2412" y="629" type="line"/>
      <point x="2412" y="699" type="line"/>
      <point x="1707" y="699" type="line"/>
      <point x="1707" y="629" type="line"/>
      <point x="1863" y="613" type="line"/>
      <point x="1863" y="328" type="line" smooth="yes"/>
      <point x="1863" y="143"/>
      <point x="1805" y="59"/>
      <point x="1650" y="59" type="curve" smooth="yes"/>
      <point x="1487" y="59"/>
      <point x="1427" y="141"/>
      <point x="1427" y="333" type="curve" smooth="yes"/>
      <point x="1427" y="1221" type="line"/>
      <point x="1621" y="1235" type="line"/>
      <point x="1621" y="1292" type="line"/>
      <point x="212" y="1292" type="line"/>
      <point x="212" y="1235" type="line"/>
      <point x="479" y="1221" type="line"/>
      <point x="479" y="1045" type="line" smooth="yes"/>
      <point x="479" y="587"/>
      <point x="423" y="311"/>
      <point x="358" y="176" type="curve"/>
      <point x="323" y="139"/>
      <point x="288" y="113"/>
      <point x="229" y="113" type="curve" smooth="yes"/>
      <point x="156" y="113"/>
      <point x="118" y="117"/>
      <point x="66" y="121" type="curve"/>
      <point x="89" y="0" type="line"/>
      <point x="133" y="-2"/>
      <point x="193" y="-9"/>
      <point x="264" y="-9" type="curve" smooth="yes"/>
      <point x="381" y="-9"/>
      <point x="452" y="25"/>
      <point x="509" y="105" type="curve" smooth="yes"/>
      <point x="614" y="267"/>
      <point x="658" y="594"/>
      <point x="658" y="1032" type="curve" smooth="yes"/>
      <point x="658" y="1221" type="line"/>
      <point x="1023" y="1221" type="line"/>
      <point x="1023" y="293" type="line" smooth="yes"/>
      <point x="1023" y="104"/>
      <point x="1192" y="-14"/>
      <point x="1636" y="-14" type="curve" smooth="yes"/>
      <point x="2001" y="-14"/>
      <point x="2270" y="109"/>
    </contour>
  </outline>
</glyph>
<glyph name="kominje-cy.sc" format="1">
  <advance width="2554"/>
  <outline>
    <contour>
      <point x="1563" y="333" type="curve" smooth="yes"/>
      <point x="1563" y="1220" type="line"/>
      <point x="1720" y="1239" type="line"/>
      <point x="1720" y="1292" type="line"/>
      <point x="977" y="1292" type="line"/>
      <point x="977" y="1239" type="line"/>
      <point x="1157" y="1219" type="line"/>
      <point x="1157" y="702" type="line"/>
      <point x="642" y="702" type="line"/>
      <point x="642" y="1221" type="line"/>
      <point x="810" y="1235" type="line"/>
      <point x="810" y="1292" type="line"/>
      <point x="86" y="1292" type="line"/>
      <point x="86" y="1235" type="line"/>
      <point x="233" y="1220" type="line"/>
      <point x="233" y="72" type="line"/>
      <point x="79" y="58" type="line"/>
      <point x="79" y="0" type="line"/>
      <point x="795" y="0" type="line"/>
      <point x="795" y="58" type="line"/>
      <point x="642" y="72" type="line"/>
      <point x="642" y="630" type="line"/>
      <point x="1157" y="630" type="line"/>
      <point x="1156" y="293" type="line" smooth="yes"/>
      <point x="1157" y="94"/>
      <point x="1325" y="-14"/>
      <point x="1754" y="-14" type="curve" smooth="yes"/>
      <point x="2121" y="-14"/>
      <point x="2388" y="109"/>
      <point x="2388" y="287" type="curve" smooth="yes"/>
      <point x="2388" y="613" type="line"/>
      <point x="2529" y="629" type="line"/>
      <point x="2529" y="700" type="line"/>
      <point x="1828" y="700" type="line"/>
      <point x="1828" y="629" type="line"/>
      <point x="1983" y="613" type="line"/>
      <point x="1983" y="328" type="line" smooth="yes"/>
      <point x="1983" y="143"/>
      <point x="1923" y="59"/>
      <point x="1768" y="59" type="curve" smooth="yes"/>
      <point x="1629" y="59"/>
      <point x="1566" y="147"/>
    </contour>
  </outline>
</glyph>
<glyph name="komisje-cy.sc" format="1">
  <advance width="1643"/>
  <outline>
    <contour>
      <point x="812" y="-144" type="move" name="mark0"/>
    </contour>
    <contour>
      <point x="1472" y="287" type="curve" smooth="yes"/>
      <point x="1472" y="613" type="line"/>
      <point x="1613" y="629" type="line"/>
      <point x="1613" y="700" type="line"/>
      <point x="943" y="700" type="line"/>
      <point x="943" y="629" type="line"/>
      <point x="1098" y="613" type="line"/>
      <point x="1098" y="328" type="line" smooth="yes"/>
      <point x="1098" y="143"/>
      <point x="1038" y="60"/>
      <point x="881" y="59" type="curve" smooth="yes"/>
      <point x="651" y="59"/>
      <point x="532" y="381"/>
      <point x="532" y="668" type="curve" smooth="yes"/>
      <point x="532" y="1038"/>
      <point x="661" y="1232"/>
      <point x="904" y="1232" type="curve" smooth="yes"/>
      <point x="1030" y="1232"/>
      <point x="1078" y="1201"/>
      <point x="1107" y="1181" type="curve"/>
      <point x="1170" y="979" type="line"/>
      <point x="1454" y="979" type="line"/>
      <point x="1481" y="1253" type="line"/>
      <point x="1400" y="1264"/>
      <point x="1142" y="1307"/>
      <point x="914" y="1307" type="curve" smooth="yes"/>
      <point x="407" y="1307"/>
      <point x="64" y="1049"/>
      <point x="64" y="630" type="curve" smooth="yes"/>
      <point x="64" y="288"/>
      <point x="365" y="-14"/>
      <point x="868" y="-14" type="curve" smooth="yes"/>
      <point x="1220" y="-14"/>
      <point x="1472" y="108"/>
    </contour>
  </outline>
</glyph>
<glyph name="komitje-cy.sc" format="1">
  <advance width="2011"/>
  <outline>
    <contour>
      <point x="922" y="-144" type="move" name="mark0"/>
    </contour>
    <contour>
      <point x="1006" y="333" type="curve" smooth="yes"/>
      <point x="1006" y="1231" type="line"/>
      <point x="1281" y="1229" type="line"/>
      <point x="1356" y="891" type="line"/>
      <point x="1578" y="891" type="line"/>
      <point x="1540" y="1292" type="line"/>
      <point x="78" y="1292" type="line"/>
      <point x="49" y="891" type="line"/>
      <point x="249" y="891" type="line"/>
      <point x="328" y="1229" type="line"/>
      <point x="600" y="1231" type="line"/>
      <point x="600" y="293" type="line" smooth="yes"/>
      <point x="600" y="105"/>
      <point x="770" y="-14"/>
      <point x="1213" y="-14" type="curve" smooth="yes"/>
      <point x="1577" y="-14"/>
      <point x="1845" y="106"/>
      <point x="1845" y="287" type="curve" smooth="yes"/>
      <point x="1845" y="613" type="line"/>
      <point x="1987" y="629" type="line"/>
      <point x="1987" y="700" type="line"/>
      <point x="1284" y="700" type="line"/>
      <point x="1284" y="629" type="line"/>
      <point x="1439" y="613" type="line"/>
      <point x="1439" y="328" type="line" smooth="yes"/>
      <point x="1439" y="146"/>
      <point x="1380" y="59"/>
      <point x="1225" y="59" type="curve" smooth="yes"/>
      <point x="1061" y="59"/>
      <point x="1006" y="147"/>
    </contour>
  </outline>
</glyph>
<glyph name="komizje-cy.sc" format="1">
  <advance width="2291"/>
  <outline>
    <contour>
      <point x="2129" y="287" type="curve" smooth="yes"/>
      <point x="2129" y="613" type="line"/>
      <point x="2267" y="629" type="line"/>
      <point x="2267" y="697" type="line"/>
      <point x="1566" y="697" type="line"/>
      <point x="1566" y="629" type="line"/>
      <point x="1721" y="612" type="line"/>
      <point x="1721" y="328" type="line" smooth="yes"/>
      <point x="1721" y="146"/>
      <point x="1664" y="59"/>
      <point x="1508" y="59" type="curve" smooth="yes"/>
      <point x="1362" y="59"/>
      <point x="1287" y="122"/>
      <point x="1287" y="333" type="curve" smooth="yes"/>
      <point x="1287" y="541"/>
      <point x="1112" y="684"/>
      <point x="838" y="682" type="curve"/>
      <point x="1024" y="711"/>
      <point x="1202" y="815"/>
      <point x="1202" y="1016" type="curve" smooth="yes"/>
      <point x="1202" y="1216"/>
      <point x="998" y="1306"/>
      <point x="610" y="1306" type="curve" smooth="yes"/>
      <point x="451" y="1306"/>
      <point x="193" y="1254"/>
      <point x="106" y="1247" type="curve"/>
      <point x="143" y="1004" type="line"/>
      <point x="363" y="1004" type="line"/>
      <point x="410" y="1152" type="line"/>
      <point x="423" y="1203"/>
      <point x="465" y="1232"/>
      <point x="566" y="1232" type="curve" smooth="yes"/>
      <point x="698" y="1232"/>
      <point x="776" y="1166"/>
      <point x="775" y="989" type="curve"/>
      <point x="775" y="805"/>
      <point x="652" y="695"/>
      <point x="540" y="695" type="curve" smooth="yes"/>
      <point x="427" y="695" type="line"/>
      <point x="427" y="628" type="line"/>
      <point x="556" y="628" type="line" smooth="yes"/>
      <point x="778" y="628"/>
      <point x="827" y="497"/>
      <point x="827" y="293" type="curve" smooth="yes"/>
      <point x="827" y="114"/>
      <point x="1071" y="-14"/>
      <point x="1495" y="-14" type="curve" smooth="yes"/>
      <point x="1862" y="-14"/>
      <point x="2129" y="105"/>
    </contour>
  </outline>
</glyph>
<glyph name="lje-cy.sc" format="1">
  <advance width="2273"/>
  <outline>
    <contour>
      <point x="704" y="-144" type="move" name="mark0"/>
    </contour>
    <contour>
      <point x="1424" y="712" type="curve"/>
      <point x="1424" y="1221" type="line"/>
      <point x="1617" y="1235" type="line"/>
      <point x="1617" y="1292" type="line"/>
      <point x="230" y="1292" type="line"/>
      <point x="230" y="1235" type="line"/>
      <point x="480" y="1220" type="line"/>
      <point x="480" y="1045" type="line" smooth="yes"/>
      <point x="480" y="590"/>
      <point x="425" y="308"/>
      <point x="361" y="172" type="curve"/>
      <point x="328" y="130"/>
      <point x="295" y="112"/>
      <point x="231" y="112" type="curve" smooth="yes"/>
      <point x="156" y="112"/>
      <point x="119" y="116"/>
      <point x="66" y="121" type="curve"/>
      <point x="92" y="0" type="line"/>
      <point x="137" y="-2"/>
      <point x="196" y="-9"/>
      <point x="268" y="-9" type="curve" smooth="yes"/>
      <point x="380" y="-9"/>
      <point x="454" y="25"/>
      <point x="511" y="102" type="curve" smooth="yes"/>
      <point x="616" y="268"/>
      <point x="660" y="586"/>
      <point x="660" y="1032" type="curve" smooth="yes"/>
      <point x="660" y="1222" type="line"/>
      <point x="1024" y="1222" type="line"/>
      <point x="1024" y="74" type="line"/>
      <point x="803" y="58" type="line"/>
      <point x="803" y="0" type="line"/>
      <point x="1235" y="0" type="line" smooth="yes"/>
      <point x="1325" y="0"/>
      <point x="1627" y="-14"/>
      <point x="1677" y="-14" type="curve" smooth="yes"/>
      <point x="2026" y="-14"/>
      <point x="2225" y="116"/>
      <point x="2225" y="379" type="curve" smooth="yes"/>
      <point x="2225" y="601"/>
      <point x="2058" y="733"/>
      <point x="1691" y="733" type="curve" smooth="yes"/>
      <point x="1613" y="733"/>
      <point x="1453" y="721"/>
    </contour>
    <contour>
      <point x="1424" y="66" type="curve"/>
      <point x="1424" y="637" type="line"/>
      <point x="1444" y="644"/>
      <point x="1522" y="650"/>
      <point x="1573" y="650" type="curve" smooth="yes"/>
      <point x="1739" y="650"/>
      <point x="1811" y="558"/>
      <point x="1811" y="370" type="curve" smooth="yes"/>
      <point x="1811" y="149"/>
      <point x="1759" y="50"/>
      <point x="1549" y="50" type="curve" smooth="yes"/>
      <point x="1499" y="50"/>
      <point x="1459" y="56"/>
    </contour>
  </outline>
</glyph>
<glyph name="nje-cy.sc" format="1">
  <advance width="2396"/>
  <outline>
    <contour>
      <point x="857" y="-144" type="move" name="mark0"/>
    </contour>
    <contour>
      <point x="1817" y="734" type="curve" smooth="yes"/>
      <point x="1551" y="734" type="line"/>
      <point x="1551" y="1219" type="line"/>
      <point x="1706" y="1239" type="line"/>
      <point x="1706" y="1292" type="line"/>
      <point x="979" y="1292" type="line"/>
      <point x="979" y="1239" type="line"/>
      <point x="1147" y="1220" type="line"/>
      <point x="1147" y="703" type="line"/>
      <point x="639" y="703" type="line"/>
      <point x="639" y="1221" type="line"/>
      <point x="813" y="1235" type="line"/>
      <point x="813" y="1292" type="line"/>
      <point x="82" y="1292" type="line"/>
      <point x="82" y="1235" type="line"/>
      <point x="233" y="1220" type="line"/>
      <point x="233" y="72" type="line"/>
      <point x="78" y="58" type="line"/>
      <point x="78" y="0" type="line"/>
      <point x="814" y="0" type="line"/>
      <point x="814" y="58" type="line"/>
      <point x="639" y="70" type="line"/>
      <point x="639" y="630" type="line"/>
      <point x="1147" y="630" type="line"/>
      <point x="1147" y="70" type="line"/>
      <point x="982" y="58" type="line"/>
      <point x="982" y="0" type="line"/>
      <point x="1362" y="0" type="line" smooth="yes"/>
      <point x="1449" y="0"/>
      <point x="1767" y="-19"/>
      <point x="1817" y="-19" type="curve" smooth="yes"/>
      <point x="2130" y="-19"/>
      <point x="2353" y="96"/>
      <point x="2353" y="380" type="curve" smooth="yes"/>
      <point x="2353" y="603"/>
      <point x="2144" y="734"/>
    </contour>
    <contour>
      <point x="1551" y="81" type="curve"/>
      <point x="1551" y="649" type="line"/>
      <point x="1699" y="649" type="line" smooth="yes"/>
      <point x="1844" y="649"/>
      <point x="1937" y="549"/>
      <point x="1937" y="370" type="curve" smooth="yes"/>
      <point x="1937" y="148"/>
      <point x="1885" y="56"/>
      <point x="1675" y="56" type="curve" smooth="yes"/>
      <point x="1623" y="56"/>
      <point x="1579" y="76"/>
    </contour>
  </outline>
</glyph>
<glyph name="obarred-cy.sc" format="1">
  <advance width="1563"/>
  <outline>
    <contour>
      <point x="795" y="1265" type="move" name="top"/>
    </contour>
    <contour>
      <point x="775" y="-144" type="move" name="mark0"/>
    </contour>
    <contour>
      <point x="792" y="1307" type="curve" smooth="yes"/>
      <point x="343" y="1306"/>
      <point x="63" y="1047"/>
      <point x="63" y="634" type="curve" smooth="yes"/>
      <point x="63" y="248"/>
      <point x="262" y="-28"/>
      <point x="773" y="-20" type="curve" smooth="yes"/>
      <point x="1224" y="-12"/>
      <point x="1500" y="245"/>
      <point x="1500" y="654" type="curve" smooth="yes"/>
      <point x="1500" y="1047"/>
      <point x="1309" y="1308"/>
    </contour>
    <contour>
      <point x="509" y="614" type="curve"/>
      <point x="1053" y="614" type="line"/>
      <point x="1039" y="240"/>
      <point x="939" y="49"/>
      <point x="780" y="49" type="curve" smooth="yes"/>
      <point x="621" y="49"/>
      <point x="517" y="307"/>
    </contour>
    <contour>
      <point x="1055" y="685" type="curve"/>
      <point x="511" y="685" type="line"/>
      <point x="519" y="1041"/>
      <point x="617" y="1237"/>
      <point x="784" y="1237" type="curve" smooth="yes"/>
      <point x="944" y="1237"/>
      <point x="1046" y="985"/>
    </contour>
  </outline>
</glyph>
<glyph name="pe-cy.sc" format="1">
  <advance width="1755"/>
  <outline>
    <contour>
      <point x="1142" y="0" type="move" name="bottomright"/>
    </contour>
    <contour>
      <point x="77" y="1292" type="line"/>
      <point x="77" y="1235" type="line"/>
      <point x="234" y="1221" type="line"/>
      <point x="234" y="72" type="line"/>
      <point x="81" y="58" type="line"/>
      <point x="81" y="0" type="line"/>
      <point x="794" y="0" type="line"/>
      <point x="794" y="58" type="line"/>
      <point x="640" y="72" type="line"/>
      <point x="640" y="1214" type="line"/>
      <point x="1116" y="1214" type="line"/>
      <point x="1116" y="75" type="line"/>
      <point x="972" y="58" type="line"/>
      <point x="972" y="0" type="line"/>
      <point x="1685" y="0" type="line"/>
      <point x="1685" y="58" type="line"/>
      <point x="1520" y="74" type="line"/>
      <point x="1520" y="1217" type="line"/>
      <point x="1677" y="1237" type="line"/>
      <point x="1677" y="1292" type="line"/>
    </contour>
  </outline>
</glyph>
<glyph name="pedescender-cy.sc" format="1">
  <advance width="1799"/>
  <outline>
    <contour>
      <point x="1751" y="74" type="curve"/>
      <point x="1520" y="74" type="line"/>
      <point x="1520" y="1217" type="line"/>
      <point x="1677" y="1237" type="line"/>
      <point x="1677" y="1292" type="line"/>
      <point x="77" y="1292" type="line"/>
      <point x="77" y="1235" type="line"/>
      <point x="234" y="1221" type="line"/>
      <point x="234" y="72" type="line"/>
      <point x="81" y="58" type="line"/>
      <point x="81" y="0" type="line"/>
      <point x="794" y="0" type="line"/>
      <point x="794" y="58" type="line"/>
      <point x="640" y="72" type="line"/>
      <point x="640" y="1214" type="line"/>
      <point x="1116" y="1214" type="line"/>
      <point x="1116" y="75" type="line"/>
      <point x="972" y="58" type="line"/>
      <point x="972" y="0" type="line"/>
      <point x="1415" y="0" type="line"/>
      <point x="1445" y="-4"/>
      <point x="1488" y="-272"/>
      <point x="1489" y="-298" type="curve"/>
      <point x="1699" y="-298" type="line"/>
      <point x="1708" y="-301"/>
      <point x="1751" y="119"/>
    </contour>
  </outline>
</glyph>
<glyph name="pemiddlehook-cy.sc" format="1">
  <advance width="2456"/>
  <outline>
    <contour>
      <point x="839" y="-144" type="move" name="mark0"/>
    </contour>
    <contour>
      <point x="1520" y="684" type="curve"/>
      <point x="1520" y="1217" type="line"/>
      <point x="1677" y="1237" type="line"/>
      <point x="1677" y="1292" type="line"/>
      <point x="77" y="1292" type="line"/>
      <point x="77" y="1235" type="line"/>
      <point x="234" y="1221" type="line"/>
      <point x="234" y="72" type="line"/>
      <point x="81" y="58" type="line"/>
      <point x="81" y="0" type="line"/>
      <point x="794" y="0" type="line"/>
      <point x="794" y="58" type="line"/>
      <point x="640" y="72" type="line"/>
      <point x="640" y="1214" type="line"/>
      <point x="1116" y="1214" type="line"/>
      <point x="1116" y="75" type="line"/>
      <point x="972" y="58" type="line"/>
      <point x="972" y="0" type="line"/>
      <point x="1685" y="0" type="line"/>
      <point x="1685" y="58" type="line"/>
      <point x="1520" y="74" type="line"/>
      <point x="1520" y="621" type="line"/>
      <point x="1563" y="642"/>
      <point x="1647" y="655"/>
      <point x="1755" y="655" type="curve" smooth="yes"/>
      <point x="1924" y="655"/>
      <point x="1986" y="537"/>
      <point x="1986" y="306" type="curve" smooth="yes"/>
      <point x="1986" y="-63"/>
      <point x="1903" y="-256"/>
      <point x="1744" y="-256" type="curve" smooth="yes"/>
      <point x="1634" y="-256"/>
      <point x="1598" y="-261"/>
      <point x="1574" y="-256" type="curve"/>
      <point x="1591" y="-330" type="line"/>
      <point x="1624" y="-340"/>
      <point x="1696" y="-339"/>
      <point x="1803" y="-339" type="curve" smooth="yes"/>
      <point x="2152" y="-339"/>
      <point x="2390" y="-40"/>
      <point x="2390" y="301" type="curve" smooth="yes"/>
      <point x="2390" y="519"/>
      <point x="2187" y="738"/>
      <point x="1849" y="738" type="curve" smooth="yes"/>
      <point x="1737" y="738"/>
      <point x="1572" y="710"/>
    </contour>
  </outline>
</glyph>
<glyph name="reversedze-cy.sc" format="1">
  <advance width="1349"/>
  <outline>
    <contour>
      <point x="1245" y="46" type="curve"/>
      <point x="1246" y="256" type="line"/>
      <point x="1046" y="273" type="line"/>
      <point x="949" y="122" type="line"/>
      <point x="921" y="83"/>
      <point x="847" y="53"/>
      <point x="766" y="53" type="curve" smooth="yes"/>
      <point x="603" y="53"/>
      <point x="538" y="144"/>
      <point x="538" y="340" type="curve" smooth="yes"/>
      <point x="538" y="468"/>
      <point x="587" y="636"/>
      <point x="782" y="636" type="curve"/>
      <point x="950" y="630" type="line"/>
      <point x="950" y="716" type="line"/>
      <point x="803" y="703" type="line"/>
      <point x="664" y="703"/>
      <point x="543" y="761"/>
      <point x="543" y="953" type="curve" smooth="yes"/>
      <point x="543" y="1130"/>
      <point x="642" y="1235"/>
      <point x="782" y="1235" type="curve" smooth="yes"/>
      <point x="878" y="1235"/>
      <point x="928" y="1201"/>
      <point x="940" y="1181" type="curve"/>
      <point x="999" y="993" type="line"/>
      <point x="1219" y="993" type="line"/>
      <point x="1244" y="1252" type="line"/>
      <point x="1155" y="1271"/>
      <point x="911" y="1306"/>
      <point x="732" y="1306" type="curve" smooth="yes"/>
      <point x="326" y="1306"/>
      <point x="118" y="1185"/>
      <point x="118" y="974" type="curve" smooth="yes"/>
      <point x="118" y="780"/>
      <point x="282" y="698"/>
      <point x="490" y="672" type="curve"/>
      <point x="225" y="661"/>
      <point x="77" y="519"/>
      <point x="77" y="326" type="curve" smooth="yes"/>
      <point x="77" y="114"/>
      <point x="208" y="-20"/>
      <point x="740" y="-20" type="curve" smooth="yes"/>
      <point x="996" y="-20"/>
      <point x="1137" y="44"/>
    </contour>
  </outline>
</glyph>
<glyph name="sha-cy.sc" format="1">
  <advance width="2515"/>
  <outline>
    <contour>
      <point x="790" y="-144" type="move" name="mark0"/>
    </contour>
    <contour>
      <point x="79" y="1292" type="line"/>
      <point x="79" y="1235" type="line"/>
      <point x="234" y="1220" type="line"/>
      <point x="234" y="74" type="line"/>
      <point x="72" y="58" type="line"/>
      <point x="72" y="0" type="line"/>
      <point x="2444" y="0" type="line"/>
      <point x="2444" y="58" type="line"/>
      <point x="2281" y="75" type="line"/>
      <point x="2281" y="1220" type="line"/>
      <point x="2437" y="1235" type="line"/>
      <point x="2437" y="1292" type="line"/>
      <point x="1733" y="1292" type="line"/>
      <point x="1733" y="1235" type="line"/>
      <point x="1878" y="1221" type="line"/>
      <point x="1878" y="72" type="line"/>
      <point x="1463" y="72" type="line"/>
      <point x="1463" y="1220" type="line"/>
      <point x="1612" y="1235" type="line"/>
      <point x="1612" y="1292" type="line"/>
      <point x="911" y="1292" type="line"/>
      <point x="911" y="1235" type="line"/>
      <point x="1060" y="1220" type="line"/>
      <point x="1060" y="72" type="line"/>
      <point x="639" y="72" type="line"/>
      <point x="639" y="1217" type="line"/>
      <point x="788" y="1235" type="line"/>
      <point x="788" y="1292" type="line"/>
    </contour>
  </outline>
</glyph>
<glyph name="shcha-cy.sc" format="1">
  <advance width="2573"/>
  <outline>
    <contour>
      <point x="2528" y="74" type="curve"/>
      <point x="2281" y="74" type="line"/>
      <point x="2281" y="1220" type="line"/>
      <point x="2437" y="1235" type="line"/>
      <point x="2437" y="1292" type="line"/>
      <point x="1733" y="1292" type="line"/>
      <point x="1733" y="1235" type="line"/>
      <point x="1878" y="1221" type="line"/>
      <point x="1878" y="72" type="line"/>
      <point x="1463" y="72" type="line"/>
      <point x="1463" y="1220" type="line"/>
      <point x="1612" y="1235" type="line"/>
      <point x="1612" y="1292" type="line"/>
      <point x="911" y="1292" type="line"/>
      <point x="911" y="1235" type="line"/>
      <point x="1060" y="1220" type="line"/>
      <point x="1060" y="72" type="line"/>
      <point x="639" y="72" type="line"/>
      <point x="639" y="1220" type="line"/>
      <point x="788" y="1235" type="line"/>
      <point x="788" y="1292" type="line"/>
      <point x="79" y="1292" type="line"/>
      <point x="79" y="1235" type="line"/>
      <point x="234" y="1220" type="line"/>
      <point x="234" y="74" type="line"/>
      <point x="72" y="58" type="line"/>
      <point x="72" y="0" type="line"/>
      <point x="2191" y="0" type="line"/>
      <point x="2222" y="1"/>
      <point x="2265" y="-279"/>
      <point x="2266" y="-298" type="curve"/>
      <point x="2475" y="-298" type="line"/>
      <point x="2486" y="-118"/>
      <point x="2526" y="-37"/>
    </contour>
  </outline>
</glyph>
<glyph name="shha-cy.sc" format="1">
  <advance width="1615"/>
  <outline>
    <contour>
      <point x="50" y="1124" type="move" name="topleft"/>
    </contour>
    <contour>
      <point x="805" y="476" type="move" name="center"/>
    </contour>
    <contour>
      <point x="833" y="-168" type="move" name="bottom"/>
    </contour>
    <contour>
      <point x="633" y="696" type="curve"/>
      <point x="633" y="1217" type="line"/>
      <point x="859" y="1234" type="line"/>
      <point x="859" y="1292" type="line"/>
      <point x="69" y="1292" type="line"/>
      <point x="69" y="1233" type="line"/>
      <point x="228" y="1217" type="line"/>
      <point x="228" y="74" type="line"/>
      <point x="71" y="57" type="line"/>
      <point x="71" y="0" type="line"/>
      <point x="790" y="0" type="line"/>
      <point x="790" y="57" type="line"/>
      <point x="633" y="72" type="line"/>
      <point x="633" y="633" type="line"/>
      <point x="674" y="660"/>
      <point x="760" y="689"/>
      <point x="847" y="689" type="curve" smooth="yes"/>
      <point x="1029" y="689"/>
      <point x="1057" y="638"/>
      <point x="1057" y="327" type="curve" smooth="yes"/>
      <point x="1057" y="75" type="line"/>
      <point x="922" y="57" type="line"/>
      <point x="922" y="0" type="line"/>
      <point x="1577" y="0" type="line"/>
      <point x="1577" y="57" type="line"/>
      <point x="1461" y="74" type="line"/>
      <point x="1461" y="371" type="line" smooth="yes"/>
      <point x="1461" y="623"/>
      <point x="1340" y="770"/>
      <point x="992" y="770" type="curve" smooth="yes"/>
      <point x="879" y="770"/>
      <point x="730" y="742"/>
    </contour>
  </outline>
</glyph>
<glyph name="shhadescender-cy.sc" format="1">
  <advance width="1753"/>
  <outline>
    <contour>
      <point x="71" y="1292" type="move" name="topleft"/>
    </contour>
    <contour>
      <point x="826" y="646" type="move" name="center"/>
    </contour>
    <contour>
      <point x="853" y="0" type="move" name="bottom"/>
    </contour>
    <contour>
      <point x="91" y="0" type="line"/>
      <point x="809" y="0" type="line"/>
      <point x="809" y="56" type="line"/>
      <point x="652" y="74" type="line"/>
      <point x="652" y="633" type="line"/>
      <point x="695" y="660"/>
      <point x="777" y="691"/>
      <point x="867" y="691" type="curve" smooth="yes"/>
      <point x="1049" y="691"/>
      <point x="1077" y="640"/>
      <point x="1077" y="329" type="curve" smooth="yes"/>
      <point x="1077" y="77" type="line"/>
      <point x="943" y="59" type="line"/>
      <point x="943" y="0" type="line"/>
      <point x="1371" y="0" type="line"/>
      <point x="1402" y="-4"/>
      <point x="1441" y="-276"/>
      <point x="1444" y="-298" type="curve"/>
      <point x="1655" y="-298" type="line"/>
      <point x="1664" y="-301"/>
      <point x="1707" y="121"/>
      <point x="1707" y="74" type="curve"/>
      <point x="1483" y="76" type="line"/>
      <point x="1483" y="371" type="line"/>
      <point x="1483" y="675"/>
      <point x="1354" y="770"/>
      <point x="1012" y="770" type="curve" smooth="yes"/>
      <point x="890" y="770"/>
      <point x="747" y="745"/>
      <point x="652" y="698" type="curve"/>
      <point x="652" y="1220" type="line"/>
      <point x="879" y="1234" type="line"/>
      <point x="879" y="1292" type="line"/>
      <point x="91" y="1292" type="line"/>
      <point x="91" y="1236" type="line"/>
      <point x="249" y="1220" type="line"/>
      <point x="249" y="73" type="line"/>
      <point x="91" y="56" type="line"/>
    </contour>
  </outline>
</glyph>
<glyph name="softsign-cy.sc" format="1">
  <advance width="1491"/>
  <outline>
    <contour>
      <point x="639" y="790" type="curve"/>
      <point x="639" y="1220" type="line"/>
      <point x="865" y="1239" type="line"/>
      <point x="865" y="1292" type="line"/>
      <point x="81" y="1292" type="line"/>
      <point x="81" y="1239" type="line"/>
      <point x="233" y="1219" type="line"/>
      <point x="233" y="72" type="line"/>
      <point x="78" y="58" type="line"/>
      <point x="78" y="0" type="line"/>
      <point x="400" y="0" type="line"/>
      <point x="594" y="0"/>
      <point x="725" y="-14"/>
      <point x="877" y="-14" type="curve" smooth="yes"/>
      <point x="1187" y="-14"/>
      <point x="1444" y="124"/>
      <point x="1444" y="408" type="curve" smooth="yes"/>
      <point x="1444" y="650"/>
      <point x="1274" y="790"/>
      <point x="909" y="790" type="curve" smooth="yes"/>
      <point x="868" y="790"/>
      <point x="659" y="790"/>
    </contour>
    <contour>
      <point x="639" y="70" type="curve"/>
      <point x="639" y="712" type="line"/>
      <point x="651" y="712"/>
      <point x="766" y="710"/>
      <point x="788" y="710" type="curve" smooth="yes"/>
      <point x="954" y="710"/>
      <point x="1026" y="610"/>
      <point x="1026" y="401" type="curve" smooth="yes"/>
      <point x="1026" y="157"/>
      <point x="972" y="55"/>
      <point x="765" y="55" type="curve" smooth="yes"/>
      <point x="714" y="55"/>
      <point x="672" y="62"/>
    </contour>
  </outline>
</glyph>
<glyph name="tedescender-cy.sc" format="1">
  <advance width="1613"/>
  <outline>
    <contour>
      <point x="1368" y="74" type="curve"/>
      <point x="1022" y="74" type="line"/>
      <point x="1022" y="1233" type="line"/>
      <point x="1239" y="1223" type="line"/>
      <point x="1337" y="884" type="line"/>
      <point x="1544" y="884" type="line"/>
      <point x="1516" y="1292" type="line"/>
      <point x="107" y="1292" type="line"/>
      <point x="73" y="884" type="line"/>
      <point x="291" y="884" type="line"/>
      <point x="389" y="1223" type="line"/>
      <point x="613" y="1233" type="line"/>
      <point x="613" y="74" type="line"/>
      <point x="349" y="58" type="line"/>
      <point x="349" y="0" type="line"/>
      <point x="1067" y="0" type="line"/>
      <point x="1085" y="-112"/>
      <point x="1103" y="-178"/>
      <point x="1103" y="-298" type="curve"/>
      <point x="1313" y="-298" type="line"/>
      <point x="1324" y="-129"/>
      <point x="1365" y="-78"/>
    </contour>
  </outline>
</glyph>
<glyph name="tetse-cy.sc" format="1">
  <advance width="2403"/>
  <outline>
    <contour>
      <point x="2391" y="74" type="curve"/>
      <point x="2142" y="74" type="line"/>
      <point x="2142" y="1221" type="line"/>
      <point x="2296" y="1235" type="line"/>
      <point x="2296" y="1292" type="line"/>
      <point x="1590" y="1292" type="line"/>
      <point x="1590" y="1235" type="line"/>
      <point x="1742" y="1221" type="line"/>
      <point x="1742" y="78" type="line"/>
      <point x="965" y="78" type="line"/>
      <point x="965" y="1226" type="line"/>
      <point x="1175" y="1221" type="line"/>
      <point x="1259" y="899" type="line"/>
      <point x="1454" y="899" type="line"/>
      <point x="1417" y="1292" type="line"/>
      <point x="84" y="1292" type="line"/>
      <point x="62" y="900" type="line"/>
      <point x="256" y="900" type="line"/>
      <point x="327" y="1221" type="line"/>
      <point x="559" y="1225" type="line"/>
      <point x="559" y="72" type="line"/>
      <point x="329" y="58" type="line"/>
      <point x="329" y="0" type="line"/>
      <point x="2049" y="0" type="line"/>
      <point x="2076" y="1"/>
      <point x="2128" y="-259"/>
      <point x="2128" y="-290" type="curve"/>
      <point x="2339" y="-290" type="line"/>
      <point x="2349" y="-126"/>
      <point x="2388" y="-53"/>
    </contour>
  </outline>
</glyph>
<glyph name="tse-cy.sc" format="1">
  <advance width="1795"/>
  <outline>
    <contour>
      <point x="1749" y="74" type="curve"/>
      <point x="1517" y="74" type="line"/>
      <point x="1517" y="1220" type="line"/>
      <point x="1672" y="1235" type="line"/>
      <point x="1672" y="1292" type="line"/>
      <point x="962" y="1292" type="line"/>
      <point x="962" y="1235" type="line"/>
      <point x="1113" y="1220" type="line"/>
      <point x="1113" y="78" type="line"/>
      <point x="639" y="78" type="line"/>
      <point x="639" y="1221" type="line"/>
      <point x="816" y="1235" type="line"/>
      <point x="816" y="1292" type="line"/>
      <point x="79" y="1292" type="line"/>
      <point x="79" y="1235" type="line"/>
      <point x="234" y="1220" type="line"/>
      <point x="234" y="77" type="line"/>
      <point x="71" y="57" type="line"/>
      <point x="71" y="0" type="line"/>
      <point x="1413" y="0" type="line"/>
      <point x="1443" y="-4"/>
      <point x="1484" y="-281"/>
      <point x="1486" y="-298" type="curve"/>
      <point x="1697" y="-298" type="line"/>
      <point x="1706" y="-304"/>
      <point x="1749" y="121"/>
    </contour>
  </outline>
</glyph>
<glyph name="tshe-cy.sc" format="1">
  <advance width="2038"/>
  <outline>
    <contour>
      <point x="822" y="-144" type="move" name="mark0"/>
    </contour>
    <contour>
      <point x="1006" y="657" type="curve"/>
      <point x="1006" y="1231" type="line"/>
      <point x="1282" y="1222" type="line"/>
      <point x="1371" y="890" type="line"/>
      <point x="1572" y="890" type="line"/>
      <point x="1536" y="1292" type="line"/>
      <point x="80" y="1292" type="line"/>
      <point x="51" y="890" type="line"/>
      <point x="262" y="890" type="line"/>
      <point x="329" y="1220" type="line"/>
      <point x="599" y="1230" type="line"/>
      <point x="599" y="74" type="line"/>
      <point x="340" y="58" type="line"/>
      <point x="340" y="0" type="line"/>
      <point x="1180" y="0" type="line"/>
      <point x="1180" y="58" type="line"/>
      <point x="1006" y="74" type="line"/>
      <point x="1006" y="594" type="line"/>
      <point x="1055" y="630"/>
      <point x="1135" y="661"/>
      <point x="1258" y="661" type="curve" smooth="yes"/>
      <point x="1441" y="661"/>
      <point x="1458" y="489"/>
      <point x="1458" y="307" type="curve" smooth="yes"/>
      <point x="1458" y="72" type="line"/>
      <point x="1330" y="58" type="line"/>
      <point x="1330" y="0" type="line"/>
      <point x="2007" y="0" type="line"/>
      <point x="2007" y="58" type="line"/>
      <point x="1862" y="72" type="line"/>
      <point x="1862" y="355" type="line" smooth="yes"/>
      <point x="1862" y="606"/>
      <point x="1761" y="738"/>
      <point x="1376" y="738" type="curve" smooth="yes"/>
      <point x="1240" y="738"/>
      <point x="1109" y="701"/>
    </contour>
  </outline>
</glyph>
<glyph name="u-cy.sc" format="1">
  <advance width="1498"/>
  <outline>
    <contour>
      <point x="763" y="1265" type="move" name="top"/>
    </contour>
    <contour>
      <point x="971" y="259" type="curve"/>
      <point x="1357" y="1221" type="line"/>
      <point x="1466" y="1235" type="line"/>
      <point x="1466" y="1292" type="line"/>
      <point x="979" y="1292" type="line"/>
      <point x="979" y="1235" type="line"/>
      <point x="1124" y="1220" type="line"/>
      <point x="926" y="543" type="line"/>
      <point x="874" y="364" type="line"/>
      <point x="819" y="541" type="line"/>
      <point x="590" y="1221" type="line"/>
      <point x="764" y="1235" type="line"/>
      <point x="764" y="1292" type="line"/>
      <point x="32" y="1292" type="line"/>
      <point x="32" y="1235" type="line"/>
      <point x="146" y="1220" type="line"/>
      <point x="612" y="287" type="line"/>
      <point x="600" y="151"/>
      <point x="560" y="97"/>
      <point x="423" y="97" type="curve" smooth="yes"/>
      <point x="373" y="97"/>
      <point x="313" y="100"/>
      <point x="266" y="103" type="curve"/>
      <point x="266" y="9" type="line"/>
      <point x="318" y="-7"/>
      <point x="437" y="-20"/>
      <point x="537" y="-20" type="curve" smooth="yes"/>
      <point x="804" y="-20"/>
      <point x="893" y="175"/>
    </contour>
  </outline>
</glyph>
<glyph name="ustraitstroke-cy.sc" format="1">
  <advance width="1546"/>
  <outline>
    <contour>
      <point x="118" y="1292" type="move" name="topleft"/>
    </contour>
    <contour>
      <point x="774" y="473" type="move" name="center"/>
    </contour>
    <contour>
      <point x="770" y="0" type="move" name="bottom"/>
    </contour>
    <contour>
      <point x="828" y="1292" type="move" name="top"/>
    </contour>
    <contour>
      <point x="774" y="473" type="move" name="_center"/>
    </contour>
    <contour>
      <point x="639" y="-144" type="move" name="mark0"/>
    </contour>
    <contour>
      <point x="566" y="75" type="line"/>
      <point x="354" y="58" type="line"/>
      <point x="354" y="0" type="line"/>
      <point x="1217" y="0" type="line"/>
      <point x="1217" y="58" type="line"/>
      <point x="999" y="75" type="line"/>
      <point x="999" y="487" type="line"/>
      <point x="1389" y="1218" type="line"/>
      <point x="1514" y="1235" type="line"/>
      <point x="1514" y="1292" type="line"/>
      <point x="959" y="1292" type="line"/>
      <point x="959" y="1235" type="line"/>
      <point x="1116" y="1221" type="line"/>
      <point x="920" y="689" type="line"/>
      <point x="872" y="540" type="line"/>
      <point x="825" y="689" type="line"/>
      <point x="607" y="1221" type="line"/>
      <point x="733" y="1235" type="line"/>
      <point x="733" y="1292" type="line"/>
      <point x="32" y="1292" type="line"/>
      <point x="32" y="1235" type="line"/>
      <point x="143" y="1217" type="line"/>
      <point x="566" y="485" type="line"/>
    </contour>
    <contour>
      <point x="1214" y="519" type="line"/>
      <point x="340" y="519" type="line"/>
      <point x="340" y="447" type="line"/>
      <point x="1214" y="447" type="line"/>
    </contour>
  </outline>
</glyph>
<glyph name="yusbig-cy.sc" format="1">
  <advance width="2346"/>
  <outline>
    <contour>
      <point x="930" y="600" type="curve" smooth="yes"/>
      <point x="980" y="600" type="line"/>
      <point x="980" y="74" type="line"/>
      <point x="799" y="58" type="line"/>
      <point x="799" y="0" type="line"/>
      <point x="1557" y="0" type="line"/>
      <point x="1557" y="59" type="line"/>
      <point x="1369" y="74" type="line"/>
      <point x="1369" y="600" type="line"/>
      <point x="1418" y="600" type="line" smooth="yes"/>
      <point x="1652" y="600"/>
      <point x="1715" y="0"/>
      <point x="1891" y="0" type="curve" smooth="yes"/>
      <point x="2309" y="0" type="line"/>
      <point x="2309" y="58" type="line"/>
      <point x="2221" y="74" type="line" smooth="yes"/>
      <point x="2119" y="97"/>
      <point x="2019" y="667"/>
      <point x="1598" y="667" type="curve" smooth="yes"/>
      <point x="1433" y="667" type="line"/>
      <point x="1951" y="1230" type="line"/>
      <point x="1940" y="1292" type="line"/>
      <point x="408" y="1292" type="line"/>
      <point x="398" y="1230" type="line"/>
      <point x="914" y="667" type="line"/>
      <point x="751" y="667" type="line" smooth="yes"/>
      <point x="330" y="667"/>
      <point x="230" y="97"/>
      <point x="126" y="74" type="curve" smooth="yes"/>
      <point x="40" y="58" type="line"/>
      <point x="40" y="0" type="line"/>
      <point x="458" y="0" type="line" smooth="yes"/>
      <point x="636" y="0"/>
      <point x="696" y="600"/>
    </contour>
    <contour>
      <point x="773" y="1222" type="line"/>
      <point x="1575" y="1222" type="line"/>
      <point x="1173" y="665" type="line"/>
    </contour>
  </outline>
</glyph>
<glyph name="ze-cy.sc" format="1">
  <advance width="1367"/>
  <outline>
    <contour>
      <point x="684" y="1265" type="move" name="top"/>
    </contour>
    <contour>
      <point x="684" y="0" type="move" name="bottom"/>
    </contour>
    <contour>
      <point x="122" y="1247" type="curve"/>
      <point x="159" y="1004" type="line"/>
      <point x="379" y="1004" type="line"/>
      <point x="426" y="1152" type="line"/>
      <point x="440" y="1203"/>
      <point x="491" y="1232"/>
      <point x="595" y="1232" type="curve" smooth="yes"/>
      <point x="723" y="1232"/>
      <point x="821" y="1166"/>
      <point x="822" y="989" type="curve" smooth="yes"/>
      <point x="822" y="797"/>
      <point x="704" y="695"/>
      <point x="564" y="695" type="curve" smooth="yes"/>
      <point x="454" y="695" type="line"/>
      <point x="454" y="628" type="line"/>
      <point x="583" y="628" type="line" smooth="yes"/>
      <point x="779" y="628"/>
      <point x="827" y="487"/>
      <point x="827" y="358" type="curve" smooth="yes"/>
      <point x="827" y="153"/>
      <point x="765" y="72"/>
      <point x="621" y="72" type="curve" smooth="yes"/>
      <point x="521" y="72"/>
      <point x="460" y="89"/>
      <point x="429" y="115" type="curve"/>
      <point x="357" y="320" type="line"/>
      <point x="159" y="320" type="line"/>
      <point x="106" y="53" type="line"/>
      <point x="211" y="23"/>
      <point x="342" y="-10"/>
      <point x="599" y="-10" type="curve" smooth="yes"/>
      <point x="1132" y="-10"/>
      <point x="1289" y="135"/>
      <point x="1289" y="371" type="curve" smooth="yes"/>
      <point x="1289" y="539"/>
      <point x="1143" y="677"/>
      <point x="875" y="682" type="curve"/>
      <point x="1063" y="712"/>
      <point x="1248" y="821"/>
      <point x="1248" y="1016" type="curve" smooth="yes"/>
      <point x="1248" y="1216"/>
      <point x="1024" y="1306"/>
      <point x="636" y="1306" type="curve" smooth="yes"/>
      <point x="478" y="1306"/>
      <point x="210" y="1254"/>
    </contour>
  </outline>
</glyph>
<glyph name="zhe-cy.sc" format="1">
  <advance width="2287"/>
  <outline>
    <contour>
      <point x="1143" y="1265" type="move" name="top"/>
    </contour>
    <contour>
      <point x="2231" y="0" type="move" name="bottomright"/>
    </contour>
    <contour>
      <point x="1689" y="650" type="curve"/>
      <point x="2059" y="1221" type="line"/>
      <point x="2242" y="1235" type="line"/>
      <point x="2242" y="1292" type="line"/>
      <point x="1646" y="1292" type="line"/>
      <point x="1646" y="1235" type="line"/>
      <point x="1780" y="1217" type="line"/>
      <point x="1467" y="665" type="line"/>
      <point x="1339" y="665" type="line"/>
      <point x="1339" y="1220" type="line"/>
      <point x="1508" y="1235" type="line"/>
      <point x="1508" y="1292" type="line"/>
      <point x="782" y="1292" type="line"/>
      <point x="782" y="1235" type="line"/>
      <point x="950" y="1220" type="line"/>
      <point x="950" y="665" type="line"/>
      <point x="820" y="665" type="line"/>
      <point x="506" y="1220" type="line"/>
      <point x="641" y="1235" type="line"/>
      <point x="641" y="1292" type="line"/>
      <point x="51" y="1292" type="line"/>
      <point x="51" y="1235" type="line"/>
      <point x="227" y="1221" type="line"/>
      <point x="597" y="656" type="line"/>
      <point x="284" y="581"/>
      <point x="187" y="95"/>
      <point x="81" y="74" type="curve" smooth="yes"/>
      <point x="10" y="58" type="line"/>
      <point x="10" y="0" type="line"/>
      <point x="413" y="0" type="line" smooth="yes"/>
      <point x="591" y="0"/>
      <point x="666" y="600"/>
      <point x="900" y="600" type="curve" smooth="yes"/>
      <point x="950" y="600" type="line"/>
      <point x="950" y="74" type="line"/>
      <point x="769" y="58" type="line"/>
      <point x="769" y="0" type="line"/>
      <point x="1527" y="0" type="line"/>
      <point x="1527" y="59" type="line"/>
      <point x="1339" y="74" type="line"/>
      <point x="1339" y="600" type="line"/>
      <point x="1388" y="600" type="line" smooth="yes"/>
      <point x="1622" y="600"/>
      <point x="1685" y="0"/>
      <point x="1859" y="0" type="curve"/>
      <point x="2279" y="0" type="line"/>
      <point x="2279" y="58" type="line"/>
      <point x="2202" y="74" type="line" smooth="yes"/>
      <point x="2096" y="95"/>
      <point x="2002" y="575"/>
    </contour>
  </outline>
</glyph>
<glyph name="zhedescender-cy.sc" format="1">
  <advance width="2336"/>
  <outline>
    <contour>
      <point x="1690" y="654" type="curve"/>
      <point x="2059" y="1221" type="line"/>
      <point x="2242" y="1235" type="line"/>
      <point x="2242" y="1292" type="line"/>
      <point x="1646" y="1292" type="line"/>
      <point x="1646" y="1235" type="line"/>
      <point x="1780" y="1217" type="line"/>
      <point x="1467" y="665" type="line"/>
      <point x="1339" y="665" type="line"/>
      <point x="1339" y="1220" type="line"/>
      <point x="1508" y="1235" type="line"/>
      <point x="1508" y="1292" type="line"/>
      <point x="782" y="1292" type="line"/>
      <point x="782" y="1235" type="line"/>
      <point x="950" y="1220" type="line"/>
      <point x="950" y="665" type="line"/>
      <point x="820" y="665" type="line"/>
      <point x="506" y="1220" type="line"/>
      <point x="641" y="1235" type="line"/>
      <point x="641" y="1292" type="line"/>
      <point x="51" y="1292" type="line"/>
      <point x="51" y="1235" type="line"/>
      <point x="227" y="1221" type="line"/>
      <point x="597" y="656" type="line"/>
      <point x="284" y="581"/>
      <point x="198" y="97"/>
      <point x="96" y="74" type="curve" smooth="yes"/>
      <point x="10" y="58" type="line"/>
      <point x="10" y="0" type="line"/>
      <point x="427" y="0" type="line" smooth="yes"/>
      <point x="606" y="0"/>
      <point x="666" y="600"/>
      <point x="900" y="600" type="curve" smooth="yes"/>
      <point x="950" y="600" type="line"/>
      <point x="950" y="74" type="line"/>
      <point x="769" y="58" type="line"/>
      <point x="769" y="0" type="line"/>
      <point x="1527" y="0" type="line"/>
      <point x="1527" y="59" type="line"/>
      <point x="1339" y="74" type="line"/>
      <point x="1339" y="600" type="line"/>
      <point x="1388" y="600" type="line" smooth="yes"/>
      <point x="1622" y="600"/>
      <point x="1684" y="0"/>
      <point x="1859" y="0" type="curve" smooth="yes"/>
      <point x="1990" y="0" type="line"/>
      <point x="2024" y="-10"/>
      <point x="2064" y="-275"/>
      <point x="2064" y="-298" type="curve"/>
      <point x="2275" y="-298" type="line"/>
      <point x="2284" y="-296"/>
      <point x="2327" y="115"/>
      <point x="2327" y="74" type="curve"/>
      <point x="2190" y="74" type="line"/>
      <point x="2088" y="109"/>
      <point x="2003" y="578"/>
    </contour>
  </outline>
</glyph>
